<svg width="20" height="20" viewBox="0 0 20 20" fill="none" xmlns="http://www.w3.org/2000/svg">
  <path d="M15.2378 6.50815V3.8891C15.2378 2.92442 14.4565 2.14307 13.4918 2.14307H3.88861C2.92393 2.14307 2.14258 2.92442 2.14258 3.8891V16.1113C2.14258 17.076 2.92393 17.8574 3.88861 17.8574H6.50766" stroke="#171D23" stroke-width="1.5" stroke-linecap="round" stroke-linejoin="round"/>
  <path d="M6.07124 14.3651C5.34839 14.3651 4.76172 13.7785 4.76172 13.0556C4.76172 12.3328 5.34839 11.7461 6.07124 11.7461C6.7941 11.7461 7.38077 12.3328 7.38077 13.0556C7.38077 13.7785 6.7941 14.3651 6.07124 14.3651Z" stroke="#171D23" stroke-width="1.5" stroke-linecap="round" stroke-linejoin="round"/>
  <path d="M17.8571 16.6227V15.8675C17.8571 15.4921 17.6171 15.1578 17.26 15.039L15.2381 14.3651V12.619L15.8466 12.2297C16.2944 11.9425 16.5031 11.396 16.359 10.8835C16.2124 10.3606 15.7366 10 15.1936 10H12.6636C12.1214 10 11.6448 10.3606 11.4981 10.8835C11.354 11.396 11.5627 11.9425 12.0106 12.2297L12.619 12.619V14.3651L10.5971 15.039C10.2401 15.1578 10 15.4913 10 15.8675V16.6227C10 16.854 10.0917 17.0767 10.2558 17.2399L10.6172 17.6014C10.7813 17.7655 11.0031 17.8571 11.2344 17.8571H16.6227C16.854 17.8571 17.0767 17.7655 17.2399 17.6014L17.6014 17.2399C17.7655 17.0758 17.8571 16.854 17.8571 16.6227Z" stroke="#171D23" stroke-width="1.5" stroke-linecap="round" stroke-linejoin="round"/>
  <path d="M4.76172 5.63525H11.7458" stroke="#171D23" stroke-width="1.5" stroke-linecap="round" stroke-linejoin="round"/>
  <path d="M4.76172 8.69092H8.25378" stroke="#171D23" stroke-width="1.5" stroke-linecap="round" stroke-linejoin="round"/>
</svg>
