<svg width="20" height="20" viewBox="0 0 20 20" fill="none" xmlns="http://www.w3.org/2000/svg">
<path d="M15.8333 17.0833H4.16667C3.24583 17.0833 2.5 16.3375 2.5 15.4167V7.91667C2.5 6.99583 3.24583 6.25 4.16667 6.25H15.8333C16.7542 6.25 17.5 6.99583 17.5 7.91667V15.4167C17.5 16.3375 16.7542 17.0833 15.8333 17.0833Z" stroke="#142438" stroke-width="1.5" stroke-linecap="round" stroke-linejoin="round"/>
<path d="M13.4784 6.2513V4.58464C13.4784 3.6638 12.7325 2.91797 11.8117 2.91797H8.18839C7.26756 2.91797 6.52173 3.6638 6.52173 4.58464V6.2513" stroke="#142438" stroke-width="1.5" stroke-linecap="round" stroke-linejoin="round"/>
<path d="M2.5 7.91797L7.7925 11.4105C8.065 11.5905 8.38417 11.6863 8.71083 11.6863H11.2892C11.6158 11.6863 11.935 11.5905 12.2075 11.4105L17.5 7.91797" stroke="#142438" stroke-width="1.5" stroke-linecap="round" stroke-linejoin="round"/>
</svg>
