<svg width="21" height="20" viewBox="0 0 21 20" fill="none" xmlns="http://www.w3.org/2000/svg">
<path d="M18.8332 7.5L16.6499 8.33333" stroke="#142438" stroke-width="1.5" stroke-linecap="round" stroke-linejoin="round"/>
<path d="M4.35841 8.33333L2.16675 7.5" stroke="#142438" stroke-width="1.5" stroke-linecap="round" stroke-linejoin="round"/>
<path d="M15.7083 11.6665H13.625" stroke="#142438" stroke-width="1.5" stroke-linecap="round" stroke-linejoin="round"/>
<path d="M7.37508 11.6665H5.29175" stroke="#142438" stroke-width="1.5" stroke-linecap="round" stroke-linejoin="round"/>
<path d="M16.6491 8.33325L15.9499 4.98992C15.7474 4.02492 14.8966 3.33325 13.9099 3.33325H7.17655C6.20905 3.33325 5.36822 3.99992 5.14822 4.94242L4.35571 8.33325" stroke="#142438" stroke-width="1.5" stroke-linecap="round" stroke-linejoin="round"/>
<path d="M3.20841 16.6666H5.08341C5.77341 16.6666 6.33341 16.1066 6.33341 15.4166V14.5833H14.6667V15.4166C14.6667 16.1066 15.2267 16.6666 15.9167 16.6666H17.7917C18.3667 16.6666 18.8334 16.1999 18.8334 15.6249V10.8333C18.8334 9.45242 17.7142 8.33325 16.3334 8.33325H4.66675C3.28591 8.33325 2.16675 9.45242 2.16675 10.8333V15.6249C2.16675 16.1999 2.63341 16.6666 3.20841 16.6666Z" stroke="#142438" stroke-width="1.5" stroke-linecap="round" stroke-linejoin="round"/>
</svg>
