<svg width="20" height="20" viewBox="0 0 20 20" fill="none" xmlns="http://www.w3.org/2000/svg">
<path d="M11.1313 14.8792H3.72394C2.60811 14.8792 1.70374 14.0034 1.70374 12.9227V6.40098C1.70374 5.32033 2.60811 4.44446 3.72394 4.44446H14.4983C15.6142 4.44446 16.5186 5.32033 16.5186 6.40098V9.66185" stroke="#171D23" stroke-width="1.5" stroke-miterlimit="10"/>
<path d="M1.11108 7.34302H16.2551" stroke="#171D23" stroke-width="1.5" stroke-miterlimit="10"/>
<path d="M4.66663 11.9807L8.22218 11.9807" stroke="#171D23" stroke-width="1.5" stroke-miterlimit="10" stroke-linecap="round"/>
<path d="M14.7407 17.7778C17.0316 17.7778 18.8888 15.961 18.8888 13.7198C18.8888 11.4787 17.0316 9.66183 14.7407 9.66183C12.4497 9.66183 10.5925 11.4787 10.5925 13.7198C10.5925 15.961 12.4497 17.7778 14.7407 17.7778Z" stroke="#171D23" stroke-width="1.5" stroke-miterlimit="10"/>
<path d="M16.2222 13.7198H14.7407" stroke="#171D23" stroke-width="1.5" stroke-linecap="round" stroke-linejoin="round"/>
<path d="M13.2592 13.7198L14.7407 13.7198" stroke="#171D23" stroke-width="1.5" stroke-linecap="round" stroke-linejoin="round"/>
</svg>
