<svg width="21" height="20" viewBox="0 0 21 20" fill="none" xmlns="http://www.w3.org/2000/svg">
  <path d="M12.143 14.9999H3.57157C2.388 14.9999 1.42871 14.0406 1.42871 12.857V5.71415C1.42871 4.53057 2.388 3.57129 3.57157 3.57129H15.0001C16.1837 3.57129 17.143 4.53057 17.143 5.71415V9.99986" stroke="#171D23" stroke-width="1.5" stroke-miterlimit="10"/>
  <path d="M1.42871 6.42822H17.143" stroke="#171D23" stroke-width="1.5" stroke-miterlimit="10"/>
  <path d="M4.64258 11.4282H8.21401" stroke="#171D23" stroke-width="1.5" stroke-miterlimit="10" stroke-linecap="square" stroke-linejoin="round"/>
  <path d="M15.7148 12.5V14.6429" stroke="#171D23" stroke-width="1.5" stroke-miterlimit="10" stroke-linecap="square"/>
  <path d="M16.7854 13.5713H14.6426" stroke="#171D23" stroke-width="1.5" stroke-miterlimit="10" stroke-linecap="square"/>
  <path d="M15.7144 17.8571C18.0814 17.8571 20.0001 15.9383 20.0001 13.5714C20.0001 11.2044 18.0814 9.28564 15.7144 9.28564C13.3475 9.28564 11.4287 11.2044 11.4287 13.5714C11.4287 15.9383 13.3475 17.8571 15.7144 17.8571Z" stroke="#171D23" stroke-width="1.5" stroke-miterlimit="10"/>
</svg>
