<svg width="20" height="20" viewBox="0 0 20 20" fill="none" xmlns="http://www.w3.org/2000/svg">
  <path d="M17.4027 17.1427H2.59754C2.07183 17.1427 1.42871 16.5641 1.42871 16.0713V14.6427C1.42871 14.1499 2.07183 13.5713 2.59754 13.5713H17.4027C17.9285 13.5713 18.5716 14.1499 18.5716 14.6427V16.0713C18.5716 16.5641 17.9285 17.1427 17.4027 17.1427Z" stroke="#171D23" stroke-width="1.5" stroke-linecap="round" stroke-linejoin="round"/>
  <path d="M1.78613 2.85693L6.07185 2.85693" stroke="#171D23" stroke-width="1.5" stroke-linecap="round" stroke-linejoin="round"/>
  <path d="M1.78613 5.71387H3.92899" stroke="#171D23" stroke-width="1.5" stroke-linecap="round" stroke-linejoin="round"/>
  <path d="M1.78613 8.57129H2.50042" stroke="#171D23" stroke-width="1.5" stroke-linecap="round" stroke-linejoin="round"/>
  <path d="M13.072 13.5711L18.0364 8.71929C18.7499 8.02197 18.7499 6.89162 18.0364 6.19429L15.1577 3.3809C14.4442 2.68358 13.2876 2.68358 12.5741 3.3809L6.96384 8.86394C6.25033 9.56126 6.25033 10.6916 6.96384 11.3889L9.19663 13.5711" stroke="#171D23" stroke-width="1.5" stroke-linecap="round" stroke-linejoin="round"/>
  <path d="M7.71875 12.1246L15.9136 4.11572" stroke="#171D23" stroke-width="1.5" stroke-linecap="round" stroke-linejoin="round"/>
</svg>
