<svg width="20" height="21" viewBox="0 0 20 21" fill="none" xmlns="http://www.w3.org/2000/svg">
  <path d="M17.0131 17.8574H2.98715C2.12611 17.8574 1.42871 17.1541 1.42871 16.2859V3.7145C1.42871 2.84628 2.12611 2.14307 2.98715 2.14307H17.0131C17.8742 2.14307 18.5716 2.84628 18.5716 3.7145V16.2859C18.5716 17.1541 17.8742 17.8574 17.0131 17.8574Z" stroke="#171D23" stroke-width="1.5" stroke-miterlimit="10"/>
  <path d="M14.8951 15H5.10572C4.65266 15 4.28613 14.6258 4.28613 14.1633V5.83667C4.28613 5.37417 4.65266 5 5.10572 5H14.8951C15.3482 5 15.7147 5.37417 15.7147 5.83667V14.1633C15.7147 14.6258 15.3482 15 14.8951 15Z" stroke="#171D23" stroke-width="1.5" stroke-miterlimit="10"/>
  <path d="M8.57115 11.4289C9.36013 11.4289 9.99972 10.7893 9.99972 10.0003C9.99972 9.21137 9.36013 8.57178 8.57115 8.57178C7.78217 8.57178 7.14258 9.21137 7.14258 10.0003C7.14258 10.7893 7.78217 11.4289 8.57115 11.4289Z" stroke="#171D23" stroke-width="1.5" stroke-miterlimit="10"/>
  <path d="M14.6426 8.57178H16.7854" stroke="#171D23" stroke-width="1.5" stroke-miterlimit="10" stroke-linecap="round"/>
  <path d="M14.6426 11.4287H16.7854" stroke="#171D23" stroke-width="1.5" stroke-miterlimit="10" stroke-linecap="round"/>
  <path d="M4.28613 17.8574L4.28613 19.286" stroke="#171D23" stroke-width="1.5" stroke-miterlimit="10" stroke-linecap="round"/>
  <path d="M15.7148 17.8574L15.7148 19.286" stroke="#171D23" stroke-width="1.5" stroke-miterlimit="10" stroke-linecap="round"/>
</svg>
