<svg width="22" height="20" viewBox="0 0 22 20" fill="none" xmlns="http://www.w3.org/2000/svg">
  <path d="M11 5.35742V6.42885" stroke="#171D23" stroke-width="1.5" stroke-linecap="round" stroke-linejoin="round"/>
  <path d="M11 13.5718V14.6432" stroke="#171D23" stroke-width="1.5" stroke-linecap="round" stroke-linejoin="round"/>
  <path d="M13.1319 8.09449C13.0761 7.16546 12.386 6.42871 11.5356 6.42871H10.361C9.52944 6.42871 8.85645 7.17688 8.85645 8.09925C8.85645 8.86551 9.32625 9.53372 9.99496 9.72029L12.0036 10.28C12.6732 10.4666 13.1422 11.1348 13.1422 11.901C13.1422 12.8243 12.4683 13.5716 11.6376 13.5716H10.4631C9.61088 13.5716 8.92074 12.8329 8.86588 11.902" stroke="#171D23" stroke-width="1.5" stroke-linecap="round" stroke-linejoin="round"/>
  <path d="M5.28516 4.36537C6.72352 2.99208 8.71102 2.14307 10.9066 2.14307C15.2969 2.14307 18.8566 5.53998 18.8566 9.72989C18.8566 10.3146 18.7805 10.8817 18.6494 11.4288" stroke="#171D23" stroke-width="1.5" stroke-linecap="round" stroke-linejoin="round"/>
  <path d="M16.714 15.6352C15.2756 17.0085 13.2881 17.8575 11.0926 17.8575C6.70228 17.8575 3.14258 14.4606 3.14258 10.2707C3.14258 9.68599 3.21867 9.11882 3.34976 8.57178" stroke="#171D23" stroke-width="1.5" stroke-linecap="round" stroke-linejoin="round"/>
  <path d="M4.57101 10.0003L3.14244 8.57178L1.71387 10.0003" stroke="#171D23" stroke-width="1.5" stroke-linecap="round" stroke-linejoin="round"/>
  <path d="M17.428 10.0001L18.8566 11.4287L20.2852 10.0001" stroke="#171D23" stroke-width="1.5" stroke-linecap="round" stroke-linejoin="round"/>
</svg>
