<svg width="20" height="20" viewBox="0 0 20 20" fill="none" xmlns="http://www.w3.org/2000/svg">
  <path d="M6.99255 3.38379L5.75195 4.62439" stroke="#171D23" stroke-width="1.5" stroke-linecap="round" stroke-linejoin="round"/>
  <path d="M5.75195 2.14307L6.99255 3.38367" stroke="#171D23" stroke-width="1.5" stroke-linecap="round" stroke-linejoin="round"/>
  <path d="M5.33862 3.38379C3.96817 3.38379 2.85742 4.49454 2.85742 5.86499" stroke="#171D23" stroke-width="1.5" stroke-linecap="round" stroke-linejoin="round"/>
  <path d="M5.33887 3.38379H6.993" stroke="#171D23" stroke-width="1.5" stroke-linecap="round" stroke-linejoin="round"/>
  <path d="M13.6094 16.6166L14.85 15.376" stroke="#171D23" stroke-width="1.5" stroke-linecap="round" stroke-linejoin="round"/>
  <path d="M14.85 17.8573L13.6094 16.6167" stroke="#171D23" stroke-width="1.5" stroke-linecap="round" stroke-linejoin="round"/>
  <path d="M15.2637 16.6169C16.6341 16.6169 17.7449 15.5062 17.7449 14.1357" stroke="#171D23" stroke-width="1.5" stroke-linecap="round" stroke-linejoin="round"/>
  <path d="M15.2635 16.6167H13.6094" stroke="#171D23" stroke-width="1.5" stroke-linecap="round" stroke-linejoin="round"/>
  <path d="M8.23344 16.6168C10.7353 16.6168 12.7823 14.5698 12.7823 12.0679C12.7823 9.56604 10.7353 7.51904 8.23344 7.51904C5.73156 7.51904 3.68457 9.56604 3.68457 12.0679C3.68457 13.0885 4.02946 14.0305 4.60262 14.7906C5.43382 15.8964 6.75216 16.6168 8.23344 16.6168Z" stroke="#171D23" stroke-width="1.5" stroke-linecap="round" stroke-linejoin="round"/>
  <path d="M15.5852 4.71582C17.3543 6.48492 17.3543 9.37965 15.5852 11.1488C15.4438 11.2902 15.2891 11.4085 15.1328 11.5234" stroke="#171D23" stroke-width="1.5" stroke-linecap="round" stroke-linejoin="round"/>
  <path d="M15.5852 4.71598C13.8161 2.94689 10.9213 2.94689 9.15223 4.71598C9.01163 4.85659 8.89088 5.00959 8.77344 5.16425" stroke="#171D23" stroke-width="1.5" stroke-linecap="round" stroke-linejoin="round"/>
</svg>
