<svg width="20" height="20" viewBox="0 0 20 20" fill="none" xmlns="http://www.w3.org/2000/svg">
  <path d="M5.35196 8.5253H8.45021M6.90109 6.97618V10.0744M12.0349 13.1727H7.96379C7.77789 13.1727 7.5982 13.2393 7.45722 13.3609L4.70675 15.738C3.6061 16.6892 1.91988 15.7388 2.16696 14.3059C2.61466 11.7088 3.06933 9.06982 3.52245 6.44793C3.77883 4.96309 5.06693 3.87793 6.575 3.87793H13.4245C14.9318 3.87793 16.2206 4.96309 16.477 6.4487C16.9301 9.07059 17.3848 11.7095 17.8325 14.3066C18.0796 15.7404 16.3926 16.69 15.2927 15.7388L12.5422 13.3617C12.4005 13.2393 12.2208 13.1727 12.0349 13.1727Z" stroke="#171D23" stroke-width="1.5" stroke-linecap="round" stroke-linejoin="round"/>
  <mask id="path-2-inside-1_12245_171211" fill="white">
    <rect x="12.9521" y="6.25098" width="3.47715" height="3.47715" rx="1" transform="rotate(45 12.9521 6.25098)"/>
  </mask>
  <rect x="12.9521" y="6.25098" width="3.47715" height="3.47715" rx="1" transform="rotate(45 12.9521 6.25098)" stroke="#171D23" stroke-width="3" stroke-linejoin="round" mask="url(#path-2-inside-1_12245_171211)"/>
</svg>
