<svg width="20" height="20" viewBox="0 0 20 20" fill="none" xmlns="http://www.w3.org/2000/svg">
  <path d="M12.1426 14.2857H7.85686C7.58372 14.2857 7.14258 13.9129 7.14258 13.5714V10.7143C7.14258 10.3729 7.58372 10 7.85686 10H12.1426C12.4157 10 12.8569 10.3729 12.8569 10.7143V13.5714C12.8569 13.9129 12.4157 14.2857 12.1426 14.2857Z" stroke="#171D23" stroke-width="1.5" stroke-miterlimit="10"/>
  <path d="M8.57129 10.0002V8.57164C8.57129 7.78235 9.21057 7.14307 9.99986 7.14307C10.7891 7.14307 11.4284 7.78235 11.4284 8.57164V10.0002" stroke="#171D23" stroke-width="1.5" stroke-miterlimit="10"/>
  <path d="M17.1422 7.85742V16.4289C17.1422 17.2181 16.5029 17.8574 15.7136 17.8574H4.28502C3.49573 17.8574 2.85645 17.2181 2.85645 16.4289L2.85645 7.85742" stroke="#171D23" stroke-width="1.5" stroke-miterlimit="10"/>
  <path d="M0.713867 9.61271L9.1803 2.44842C9.66101 2.04128 10.3382 2.04128 10.8196 2.44842L19.286 9.61199" stroke="#171D23" stroke-width="1.5" stroke-miterlimit="10"/>
</svg>
