<svg width="20" height="20" viewBox="0 0 20 20" fill="none" xmlns="http://www.w3.org/2000/svg">
  <path d="M11.2571 6.543V2.92871" stroke="#171D23" stroke-width="1.5" stroke-linecap="round" stroke-linejoin="round"/>
  <path d="M8.74216 2.92871V6.543C8.74216 7.58407 7.89752 8.42871 6.85645 8.42871V8.42871" stroke="#171D23" stroke-width="1.5" stroke-linecap="round" stroke-linejoin="round"/>
  <path d="M13.1425 8.42868C12.1015 8.42868 11.2568 7.58404 11.2568 6.54297" stroke="#171D23" stroke-width="1.5" stroke-linecap="round" stroke-linejoin="round"/>
  <path d="M13.1429 10.786C11.8904 10.786 10.7763 10.2336 10 9.37012" stroke="#171D23" stroke-width="1.5" stroke-linecap="round" stroke-linejoin="round"/>
  <path d="M6.85645 10.786C8.10887 10.786 9.22302 10.2336 9.9993 9.37012" stroke="#171D23" stroke-width="1.5" stroke-linecap="round" stroke-linejoin="round"/>
  <path d="M11.1787 13.1397V14.2145C11.1787 15.1071 11.6831 15.9227 12.4814 16.3218L13.3088 16.7351C15.3988 17.7801 17.8573 16.2613 17.8573 13.9254V9.09718C17.8573 8.38375 17.6145 7.69154 17.1682 7.13447L15.7689 5.38625C15.0711 4.51332 14.0191 4.32947 13.143 4.64218" stroke="#171D23" stroke-width="1.5" stroke-linecap="round" stroke-linejoin="round"/>
  <path d="M8.82115 13.1397V14.2145C8.82115 15.1071 8.31672 15.9227 7.51844 16.3218L6.69108 16.7351C4.60108 17.7801 2.14258 16.2613 2.14258 13.9254V9.09718C2.14258 8.38375 2.38536 7.69154 2.83165 7.13447L4.23101 5.38625C4.92872 4.51332 5.98079 4.32947 6.85686 4.64218" stroke="#171D23" stroke-width="1.5" stroke-linecap="round" stroke-linejoin="round"/>
</svg>
