<svg width="20" height="20" viewBox="0 0 20 20" fill="none" xmlns="http://www.w3.org/2000/svg">
  <path d="M16.2222 5.97368C17.2045 5.97368 18 6.79626 18 7.81187V16.1618C18 17.1728 17.2 18 16.2222 18H3.7778C2.79557 18 2.00002 17.1774 2.00002 16.1618L2 7.69327C2 6.92859 2.57143 5.97365 3.71428 5.97365L4.59273 5.97362M16.2222 5.97368H12.2857M16.2222 5.97368L12.9339 2.72764C12.5408 2.33965 11.9077 2.34375 11.5197 2.7368L10.2857 3.98684M4.59273 5.97362L7.58189 2.7573C7.96675 2.3432 8.61809 2.3302 9.01916 2.72863L10.2857 3.98684M4.59273 5.97362L12.2857 5.97368M12.2857 5.97368L10.2857 3.98684" stroke="#171D23" stroke-width="1.5" stroke-linecap="round" stroke-linejoin="round"/>
  <path d="M14 11C14 10.4477 14.4477 10 15 10H18V13H15C14.4477 13 14 12.5523 14 12V11Z" stroke="#171D23" stroke-width="1.5" stroke-linecap="round" stroke-linejoin="round"/>
</svg>
