<svg width="20" height="20" viewBox="0 0 20 20" fill="none" xmlns="http://www.w3.org/2000/svg">
<path d="M11.7343 5.93L14.4943 3.17C15.1393 2.525 16.1851 2.525 16.8301 3.17C17.4751 3.815 17.4751 4.86083 16.8301 5.50583L14.0701 8.26583L15.5634 15.6967C15.6184 15.97 15.5326 16.2525 15.3359 16.45L14.7859 17C14.3609 17.425 13.6384 17.2733 13.4201 16.7133L11.2334 11.1025L8.39511 13.9408L8.54677 15.7492C8.5676 15.9933 8.47927 16.235 8.30594 16.4083L7.40094 17.3133L5.63344 14.3667L2.68677 12.5992L3.59177 11.6942C3.7651 11.5208 4.00594 11.4325 4.25094 11.4533L6.05927 11.605L8.8976 8.76667L3.2876 6.58C2.72677 6.36167 2.5751 5.64 3.0001 5.21417L3.5501 4.66417C3.7476 4.46667 4.0301 4.38167 4.30344 4.43667L11.7343 5.93Z" stroke="#142438" stroke-width="1.5" stroke-linecap="round" stroke-linejoin="round"/>
</svg>
