<svg width="22" height="20" viewBox="0 0 22 20" fill="none" xmlns="http://www.w3.org/2000/svg">
  <path d="M8.857 15.0002V12.0016C7.592 11.5259 6.69057 10.5509 6.11129 9.37164C5.20129 7.51735 4.65415 6.07378 4.57129 3.57164C4.57129 2.85735 5.28557 2.14307 5.99986 2.14307H15.9999C16.7141 2.14307 17.4284 2.85735 17.4284 3.57164C17.3463 6.07378 16.7991 7.51735 15.8884 9.37164C15.2284 10.7145 14.4077 11.5259 13.1427 12.0016V15.0002" stroke="#171D23" stroke-width="1.5" stroke-miterlimit="10" stroke-linejoin="round"/>
  <path d="M4.57172 4.28613H2.08886C1.98672 4.28613 1.88886 4.32828 1.81815 4.40256C1.74743 4.47756 1.71029 4.57756 1.71529 4.68042C1.78815 6.30899 2.28958 7.70113 3.166 8.70613C4.00886 9.67542 5.48458 10.209 6.71458 10.209" stroke="#171D23" stroke-width="1.5" stroke-miterlimit="10"/>
  <path d="M17.429 4.28613H19.9118C20.014 4.28613 20.1118 4.32828 20.1826 4.40256C20.2533 4.47685 20.2904 4.57756 20.2854 4.68042C20.2126 6.30899 19.7111 7.70113 18.8354 8.70613C17.9918 9.6747 16.5161 10.2083 15.2861 10.2083" stroke="#171D23" stroke-width="1.5" stroke-miterlimit="10"/>
  <path d="M14.9286 15H7.07143C6.67714 15 6 15.6771 6 16.0714L6 16.7857C6 17.18 6.67714 17.8571 7.07143 17.8571H14.9286C15.3229 17.8571 16 17.18 16 16.7857V16.0714C16 15.6771 15.3229 15 14.9286 15Z" stroke="#171D23" stroke-width="1.5" stroke-miterlimit="10"/>
  <path d="M13.1434 7.14307C13.1434 7.85735 12.4291 8.57164 11.7148 8.92878" stroke="#171D23" stroke-width="1.5" stroke-linecap="round" stroke-linejoin="round"/>
</svg>
