<svg width="20" height="20" viewBox="0 0 20 20" fill="none" xmlns="http://www.w3.org/2000/svg">
  <path d="M7.14258 15.0002H3.57115C2.78186 15.0002 2.14258 14.3609 2.14258 13.5716L2.14258 3.57164C2.14258 2.78235 2.78186 2.14307 3.57115 2.14307H16.4283C17.2176 2.14307 17.8569 2.78235 17.8569 3.57164V13.5716C17.8569 14.3609 17.2176 15.0002 16.4283 15.0002H12.1426" stroke="#171D23" stroke-width="1.5" stroke-linecap="round" stroke-linejoin="round"/>
  <path d="M12.2019 15L12.1426 17.8571L7.14258 15" stroke="#171D23" stroke-width="1.5" stroke-linecap="round" stroke-linejoin="round"/>
  <path d="M9.9993 10V9.76961C9.9993 9.01565 10.5402 8.60656 11.0827 8.29272C11.6116 7.98479 12.1422 7.58455 12.1422 6.84611C12.1422 5.82632 11.183 5 9.9993 5C8.81559 5 7.85645 5.82632 7.85645 6.84611" stroke="#171D23" stroke-width="1.5" stroke-linecap="round" stroke-linejoin="round"/>
  <path d="M9.99716 11.4287C9.60288 11.4287 9.28288 11.7487 9.28517 12.143C9.28517 12.5373 9.60517 12.8573 9.99945 12.8573C10.3937 12.8573 10.7137 12.5373 10.7137 12.143C10.7137 11.7487 10.3937 11.4287 9.99716 11.4287Z" fill="#171D23"/>
</svg>
