<svg width="20" height="20" viewBox="0 0 20 20" fill="none" xmlns="http://www.w3.org/2000/svg">
<path d="M4.74744 4.8205C6.06957 3.55817 7.89646 2.77777 9.91463 2.77777C13.9501 2.77777 17.2222 5.90019 17.2222 9.75151C17.2222 10.2889 17.1522 10.8103 17.0317 11.3131" stroke="#171D23" stroke-width="1.5" stroke-linecap="round" stroke-linejoin="round"/>
<path d="M15.2525 15.1794C13.9303 16.4417 12.1034 17.2222 10.0853 17.2222C6.04976 17.2222 2.77771 14.0997 2.77771 10.2484C2.77771 9.71098 2.84765 9.18963 2.96815 8.6868" stroke="#171D23" stroke-width="1.5" stroke-linecap="round" stroke-linejoin="round"/>
<path d="M4.44442 9.44444L2.77775 7.77777L1.11108 9.44444" stroke="#171D23" stroke-width="1.5" stroke-linecap="round" stroke-linejoin="round"/>
<path d="M15.5555 10.4444L17.2222 12.1111L18.8889 10.4444" stroke="#171D23" stroke-width="1.5" stroke-linecap="round" stroke-linejoin="round"/>
<path d="M8.65103 14.6667C8.34018 14.6667 8.08818 14.4147 8.08818 14.1038V7C8.08818 6.44772 8.5359 6 9.08818 6H9.77298C10.8653 6 11.6742 6.21444 12.1995 6.64332C12.7332 7.07221 13 7.6953 13 8.5126C13 9.06287 12.8708 9.53626 12.6123 9.93277C12.3538 10.3212 11.9702 10.6206 11.4615 10.831C10.9612 11.0414 10.34 11.1466 9.59787 11.1466H9.21388V14.1038C9.21388 14.4147 8.96189 14.6667 8.65103 14.6667ZM7.39449 13.0159C7.17662 13.0159 7 12.8393 7 12.6214C7 12.4035 7.17662 12.2269 7.39449 12.2269H10.8832C11.1011 12.2269 11.2777 12.4035 11.2777 12.6214C11.2777 12.8393 11.1011 13.0159 10.8832 13.0159H7.39449ZM7.46125 11.1466C7.20651 11.1466 7 10.9401 7 10.6853C7 10.4306 7.20651 10.2241 7.46125 10.2241H9.19762V11.1466H7.46125ZM9.43527 10.2241C9.75857 10.2241 10.3734 10.1715 10.7236 10.0663C11.0821 9.9611 11.3573 9.78711 11.5491 9.54435C11.7409 9.30159 11.8368 8.96981 11.8368 8.54902C11.8368 7.99876 11.6617 7.5901 11.3114 7.32306C10.9612 7.05602 10.4151 6.9225 9.67292 6.9225H9.41388C9.30343 6.9225 9.21388 7.01205 9.21388 7.1225V10.0241C9.21388 10.1345 9.27289 10.2241 9.38335 10.2241C9.3993 10.2241 9.41658 10.2241 9.43527 10.2241Z" fill="#171D23" stroke="#171D23" stroke-width="0.3" stroke-linejoin="round"/>
</svg>
