<svg width="24" height="24" viewBox="0 0 24 24" fill="none" xmlns="http://www.w3.org/2000/svg">
<path d="M3.68298 17.5555C1.08092 13.6691 1.49626 8.36164 4.92899 4.92893C8.83423 1.02369 15.1659 1.02369 19.0711 4.92893C22.5038 8.36166 22.9192 13.6692 20.3171 17.5555" stroke="#142438" stroke-width="1.53846" stroke-linecap="round" stroke-linejoin="round"/>
<path d="M13.5713 10.4286C14.4392 11.2965 14.4392 12.7035 13.5713 13.5713C12.7035 14.4392 11.2965 14.4392 10.4286 13.5713C9.56081 12.7035 9.56081 11.2965 10.4286 10.4286C11.2965 9.56082 12.7035 9.56082 13.5713 10.4286" stroke="#142438" stroke-width="1.53846" stroke-linecap="round" stroke-linejoin="round"/>
<path d="M12 2V4.22222" stroke="#142438" stroke-width="1.53846" stroke-linecap="round" stroke-linejoin="round"/>
<path d="M17 3.34443L16.0333 5.0111" stroke="#142438" stroke-width="1.53846" stroke-linecap="round" stroke-linejoin="round"/>
<path d="M7 3.34443L7.96667 5.0111" stroke="#142438" stroke-width="1.53846" stroke-linecap="round" stroke-linejoin="round"/>
<path d="M3.34445 6.99998L5.01112 7.96664" stroke="#142438" stroke-width="1.53846" stroke-linecap="round" stroke-linejoin="round"/>
<path d="M22 12.0001H20.3333" stroke="#142438" stroke-width="1.53846" stroke-linecap="round" stroke-linejoin="round"/>
<path d="M3.66666 12.0001H2" stroke="#142438" stroke-width="1.53846" stroke-linecap="round" stroke-linejoin="round"/>
<path d="M13.9889 11.0333L20.6556 6.99998" stroke="#142438" stroke-width="1.53846" stroke-linecap="round" stroke-linejoin="round"/>
</svg>
