<svg width="20" height="20" viewBox="0 0 20 20" fill="none" xmlns="http://www.w3.org/2000/svg">
  <path d="M11.4293 12.7918C11.4293 13.5811 10.79 14.2204 10.0007 14.2204C9.21141 14.2204 8.55213 13.5811 8.55213 12.7918L8.57141 10.9804C7.71784 10.4861 7.14355 9.56321 7.14355 8.50607C7.14355 6.92821 8.42284 5.64893 10.0007 5.64893C11.5786 5.64893 12.8578 6.92821 12.8578 8.50607C12.8578 9.56321 12.2836 10.4861 11.43 10.9804L11.4293 12.7918Z" stroke="#171D23" stroke-width="1.5" stroke-miterlimit="10"/>
  <path d="M17.1431 9.27811C17.1431 13.4382 14.3244 17.3373 10.4646 18.503C10.1628 18.5944 9.83778 18.5944 9.53599 18.503C5.67617 17.3382 2.85742 13.4382 2.85742 9.27811V5.44186C2.85742 4.66852 3.29581 3.97137 3.96724 3.67898L8.3101 1.78372C9.39403 1.31038 10.6083 1.31038 11.6913 1.78372L16.0342 3.67898C16.7047 3.97137 17.1431 4.66852 17.1431 5.44186V9.27811Z" stroke="#171D23" stroke-width="1.5" stroke-miterlimit="10" stroke-linejoin="round"/>
</svg>
