<svg width="20" height="20" viewBox="0 0 20 20" fill="none" xmlns="http://www.w3.org/2000/svg">
  <path d="M17.282 9.78968C18.0491 10.5568 18.0491 11.8005 17.282 12.5676C16.5149 13.3347 15.2711 13.3347 14.504 12.5676C13.7369 11.8005 13.7369 10.5568 14.504 9.78968C15.2711 9.02258 16.5149 9.02258 17.282 9.78968" stroke="#171D23" stroke-width="1.5" stroke-linecap="round" stroke-linejoin="round"/>
  <path d="M5.28543 2.92871H3.71401C2.84579 2.92871 2.14258 3.63193 2.14258 4.50014V7.643C2.14258 10.2469 4.25301 12.3573 6.85686 12.3573C9.46072 12.3573 11.5711 10.2469 11.5711 7.643V4.50014C11.5711 3.63193 10.8679 2.92871 9.99972 2.92871H8.42829" stroke="#171D23" stroke-width="1.5" stroke-linecap="round" stroke-linejoin="round"/>
  <path d="M15.8922 13.1431V13.3396C15.8922 15.835 13.8697 17.8574 11.3743 17.8574C8.87887 17.8574 6.85645 15.835 6.85645 13.3396V12.3574" stroke="#171D23" stroke-width="1.5" stroke-linecap="round" stroke-linejoin="round"/>
  <path d="M5.28544 2.14307V3.71449" stroke="#171D23" stroke-width="1.5" stroke-linecap="round" stroke-linejoin="round"/>
  <path d="M8.42801 2.14307V3.71449" stroke="#171D23" stroke-width="1.5" stroke-linecap="round" stroke-linejoin="round"/>
</svg>
