<svg width="20" height="20" viewBox="0 0 20 20" fill="none" xmlns="http://www.w3.org/2000/svg">
  <path d="M15.509 5H4.49068C3.80743 5 3.36295 5.74762 3.6706 6.38095L4.13253 7.33333C4.28865 7.65429 4.60639 7.85714 4.95353 7.85714H15.0471C15.3942 7.85714 15.7111 7.65429 15.8672 7.33333L16.3291 6.38095C16.6368 5.74762 16.1923 5 15.509 5V5Z" stroke="#171D23" stroke-width="1.5" stroke-linecap="round" stroke-linejoin="round"/>
  <path d="M6.92383 4.00879C7.82174 4.81057 9.23363 5.00075 9.91721 5.00075" stroke="#171D23" stroke-width="1.5" stroke-linecap="round" stroke-linejoin="round"/>
  <path d="M9.91772 5.00064C9.91772 5.00064 10.3287 2.77564 9.31738 1.87207" stroke="#171D23" stroke-width="1.5" stroke-linecap="round" stroke-linejoin="round"/>
  <path d="M6.92423 4.00884C6.26354 3.41867 6.26354 2.46152 6.92423 1.87134C7.58491 1.28117 8.65658 1.28117 9.31726 1.87134" stroke="#171D23" stroke-width="1.5" stroke-linecap="round" stroke-linejoin="round"/>
  <path d="M13.0762 4.00879C12.1783 4.81057 10.7664 5.00075 10.0828 5.00075" stroke="#171D23" stroke-width="1.5" stroke-linecap="round" stroke-linejoin="round"/>
  <path d="M10.0823 5.00064C10.0823 5.00064 9.6713 2.77564 10.6826 1.87207" stroke="#171D23" stroke-width="1.5" stroke-linecap="round" stroke-linejoin="round"/>
  <path d="M13.0758 4.00884C13.7365 3.41867 13.7365 2.46152 13.0758 1.87134C12.4151 1.28117 11.3434 1.28117 10.6827 1.87134" stroke="#171D23" stroke-width="1.5" stroke-linecap="round" stroke-linejoin="round"/>
  <path d="M4.36204 8.57178C3.84871 9.37599 2.64966 11.2546 1.95443 12.3452C1.60966 12.8846 1.42871 13.5015 1.42871 14.1328C1.42871 14.9632 1.74395 15.7656 2.31728 16.3951L3.20585 17.3695C3.90204 18.1332 4.91538 18.5718 5.98109 18.5718H14.0192C15.0849 18.5718 16.0982 18.1332 16.7944 17.3695L17.683 16.3951C18.2563 15.7656 18.5716 14.9632 18.5716 14.1328C18.5716 13.5015 18.3897 12.8828 18.0449 12.3425L15.6382 8.57178" stroke="#171D23" stroke-width="1.5" stroke-linecap="round" stroke-linejoin="round"/>
</svg>
