<svg width="20" height="20" viewBox="0 0 20 20" fill="none" xmlns="http://www.w3.org/2000/svg">
  <path d="M17.143 14.2014V14.9999C17.143 16.1835 16.1837 17.1428 15.0001 17.1428H3.57157C2.388 17.1428 1.42871 16.1835 1.42871 14.9999V4.28564" stroke="#171D23" stroke-width="1.5" stroke-miterlimit="10"/>
  <path d="M13.5713 5.71387H14.9999C16.1834 5.71387 17.1427 6.67315 17.1427 7.85672V8.57101" stroke="#171D23" stroke-width="1.5" stroke-miterlimit="10"/>
  <path d="M13.5716 5.71408H2.85728C2.068 5.71408 1.42871 5.07479 1.42871 4.28551C1.42871 3.49622 2.068 2.85693 2.85728 2.85693H12.143C12.9323 2.85693 13.5716 3.49622 13.5716 4.28551V5.71408Z" stroke="#171D23" stroke-width="1.5" stroke-miterlimit="10"/>
  <path d="M17.1431 9.28564H15.0003C13.8167 9.28564 12.8574 10.2449 12.8574 11.4285C12.8574 12.6121 13.8167 13.5714 15.0003 13.5714H17.1431" stroke="#171D23" stroke-width="1.5" stroke-miterlimit="10"/>
  <path d="M15.7148 9.28564H17.8577C18.252 9.28564 18.572 9.60564 18.572 9.99993V12.8571C18.572 13.2514 18.252 13.5714 17.8577 13.5714H15.7148" stroke="#171D23" stroke-width="1.5" stroke-miterlimit="10"/>
</svg>
