<svg width="20" height="20" viewBox="0 0 20 20" fill="none" xmlns="http://www.w3.org/2000/svg">
<path d="M13.3333 6.59582H9.18292M2.5325 6.59582H9.18292H2.5325ZM15.8333 6.59582C16.7542 6.59582 17.5 7.34165 17.5 8.26249V15.8333C17.5 16.75 16.75 17.5 15.8333 17.5H4.16667C3.24583 17.5 2.5 16.7542 2.5 15.8333V6.90915C2.5 6.21582 2.92917 5.59499 3.57833 5.34999L12.2058 2.09249C12.7508 1.88665 13.3333 2.28915 13.3333 2.87165V6.59582H15.8333ZM15.8333 6.59582H9.18292H15.8333ZM15.8333 6.59582H13.3333H15.8333Z" stroke="#171D23" stroke-width="1.5" stroke-linecap="round" stroke-linejoin="round"/>
<path fill-rule="evenodd" clip-rule="evenodd" d="M13.3295 11.1458H13.3325C13.8499 11.1458 14.2708 11.5646 14.2708 12.0833C14.2708 12.6005 13.8518 13.02 13.3348 13.0208C12.8149 13.0225 12.3958 12.6008 12.3958 12.0842C12.3958 11.5681 12.8126 11.1483 13.3295 11.1458ZM13.3325 12.3958C13.162 12.3958 13.0213 12.2575 13.0208 12.0842L13.3325 12.3958ZM13.0208 12.0842V12.0833V12.0842ZM13.0208 12.0833C13.0208 11.9117 13.159 11.7725 13.3303 11.7708L13.0208 12.0833Z" fill="#171D23"/>
</svg>
