<svg width="20" height="20" viewBox="0 0 20 20" fill="none" xmlns="http://www.w3.org/2000/svg">
  <path d="M5.71429 7.85718V2.85718H14.2857V7.85718" stroke="#171D23" stroke-width="1.5" stroke-linecap="round" stroke-linejoin="round"/>
  <path d="M5.71429 14.2857H4.28571C3.90683 14.2857 3.54347 14.1352 3.27556 13.8673C3.00765 13.5994 2.85714 13.2361 2.85714 12.8572V9.28575C2.85714 8.90687 3.00765 8.54351 3.27556 8.2756C3.54347 8.00769 3.90683 7.85718 4.28571 7.85718H15.7143C16.0932 7.85718 16.4565 8.00769 16.7244 8.2756C16.9923 8.54351 17.1429 8.90687 17.1429 9.28575V12.8572C17.1429 13.2361 16.9923 13.5994 16.7244 13.8673C16.4565 14.1352 16.0932 14.2857 15.7143 14.2857H14.2857" stroke="#171D23" stroke-width="1.5" stroke-linecap="round" stroke-linejoin="round"/>
  <path d="M14.2857 11.4286H5.71429V17.1429H14.2857V11.4286Z" stroke="#171D23" stroke-width="1.5" stroke-linecap="round" stroke-linejoin="round"/>
</svg>
