<svg width="20" height="20" viewBox="0 0 20 20" fill="none" xmlns="http://www.w3.org/2000/svg">
<path d="M8.09009 15.2867V15.5908C8.09009 16.645 8.94509 17.5 10.0001 17.5C11.0551 17.5 11.9101 16.645 11.9101 15.59V15.2858" stroke="#142438" stroke-width="1.5" stroke-linecap="round" stroke-linejoin="round"/>
<path d="M11.5274 4.7925V4.0275C11.5274 3.18417 10.8441 2.5 9.99991 2.5C9.15574 2.5 8.47241 3.18417 8.47241 4.0275V4.7925" stroke="#142438" stroke-width="1.5" stroke-linecap="round" stroke-linejoin="round"/>
<path d="M5.46908 8.49C5.46908 6.40416 7.15991 4.71416 9.24491 4.71416H10.7557C12.8416 4.71416 14.5316 6.405 14.5316 8.49V10.8208C14.5316 11.2625 14.7074 11.6867 15.0199 11.9992L15.5541 12.5333C15.8666 12.8458 16.0424 13.27 16.0424 13.7117C16.0424 14.5817 15.3374 15.2867 14.4674 15.2867H5.53325C4.66325 15.2867 3.95825 14.5817 3.95825 13.7117C3.95825 13.27 4.13408 12.8458 4.44658 12.5333L4.98075 11.9992C5.29325 11.6867 5.46908 11.2625 5.46908 10.8208V8.49Z" stroke="#142438" stroke-width="1.5" stroke-linecap="round" stroke-linejoin="round"/>
</svg>
