<svg width="20" height="20" viewBox="0 0 20 20" fill="none" xmlns="http://www.w3.org/2000/svg">
<path d="M16 3.75H4C3.30964 3.75 2.75 4.30964 2.75 5V16C2.75 16.6904 3.30964 17.25 4 17.25H16C16.6904 17.25 17.25 16.6904 17.25 16V5C17.25 4.30964 16.6904 3.75 16 3.75Z" stroke="#142438" stroke-width="1.5"/>
<path d="M14.25 10.5H5.75C5.33579 10.5 5 10.8358 5 11.25C5 11.6642 5.33579 12 5.75 12H14.25C14.6642 12 15 11.6642 15 11.25C15 10.8358 14.6642 10.5 14.25 10.5Z" fill="#142438"/>
<path d="M17.25 7.5H2.75C2.33579 7.5 2 7.83579 2 8.25C2 8.66421 2.33579 9 2.75 9H17.25C17.6642 9 18 8.66421 18 8.25C18 7.83579 17.6642 7.5 17.25 7.5Z" fill="#142438"/>
<path d="M7.5 2.75C7.5 2.33579 7.16421 2 6.75 2C6.33579 2 6 2.33579 6 2.75V5.25C6 5.66421 6.33579 6 6.75 6C7.16421 6 7.5 5.66421 7.5 5.25V2.75Z" fill="#142438"/>
<path d="M14 2.75C14 2.33579 13.6642 2 13.25 2C12.8358 2 12.5 2.33579 12.5 2.75V5.25C12.5 5.66421 12.8358 6 13.25 6C13.6642 6 14 5.66421 14 5.25V2.75Z" fill="#142438"/>
<path d="M14.25 13.5H5.75C5.33579 13.5 5 13.8358 5 14.25C5 14.6642 5.33579 15 5.75 15H14.25C14.6642 15 15 14.6642 15 14.25C15 13.8358 14.6642 13.5 14.25 13.5Z" fill="#142438"/>
</svg>
