<svg width="20" height="20" viewBox="0 0 20 20" fill="none" xmlns="http://www.w3.org/2000/svg">
<path d="M17.8571 15C17.8571 15.3789 17.7066 15.7422 17.4387 16.0102C17.1708 16.2781 16.8074 16.4286 16.4286 16.4286H3.57139C3.19251 16.4286 2.82915 16.2781 2.56124 16.0102C2.29333 15.7422 2.14282 15.3789 2.14282 15V7.14286C2.14282 6.76397 2.29333 6.40061 2.56124 6.1327C2.82915 5.86479 3.19251 5.71428 3.57139 5.71428H6.42854L7.85711 3.57143H12.1429L13.5714 5.71428H16.4286C16.8074 5.71428 17.1708 5.86479 17.4387 6.1327C17.7066 6.40061 17.8571 6.76397 17.8571 7.14286V15Z" stroke="#142438" stroke-width="1.5" stroke-linecap="round" stroke-linejoin="round"/>
<path d="M9.99997 13.5714C11.578 13.5714 12.8571 12.2922 12.8571 10.7143C12.8571 9.13633 11.578 7.85715 9.99997 7.85715C8.42201 7.85715 7.14282 9.13633 7.14282 10.7143C7.14282 12.2922 8.42201 13.5714 9.99997 13.5714Z" stroke="#142438" stroke-width="1.5" stroke-linecap="round" stroke-linejoin="round"/>
</svg>
