<svg width="20" height="20" viewBox="0 0 20 20" fill="none" xmlns="http://www.w3.org/2000/svg">
<path d="M16.7417 9.75871L10.1775 16.323C9.37324 17.1272 8.28255 17.5789 7.14527 17.5789C6.008 17.5789 4.91731 17.1272 4.11313 16.323C3.30896 15.5188 2.85718 14.4281 2.85718 13.2908C2.85718 12.1536 3.30896 11.0629 4.11313 10.2587L10.6775 3.69442C11.2136 3.1583 11.9407 2.85712 12.6989 2.85712C13.4571 2.85712 14.1842 3.1583 14.7203 3.69442C15.2564 4.23054 15.5576 4.95767 15.5576 5.71585C15.5576 6.47403 15.2564 7.20116 14.7203 7.73728L8.14885 14.3016C7.88079 14.5696 7.51722 14.7202 7.13813 14.7202C6.75904 14.7202 6.39548 14.5696 6.12742 14.3016C5.85936 14.0335 5.70877 13.6699 5.70877 13.2908C5.70877 12.9118 5.85936 12.5482 6.12742 12.2801L12.1917 6.22299" stroke="#142438" stroke-width="1.5" stroke-linecap="round" stroke-linejoin="round"/>
</svg>
