<svg width="21" height="20" viewBox="0 0 21 20" fill="none" xmlns="http://www.w3.org/2000/svg">
<path fill-rule="evenodd" clip-rule="evenodd" d="M7.9987 8.125C5.35298 8.125 3.20703 10.2702 3.20703 12.9167C3.20703 15.5631 5.35298 17.7083 7.9987 17.7083C10.6452 17.7083 12.7904 15.5632 12.7904 12.9167C12.7904 10.2702 10.6452 8.125 7.9987 8.125ZM1.95703 12.9167C1.95703 9.57976 4.66275 6.875 7.9987 6.875C11.3355 6.875 14.0404 9.57982 14.0404 12.9167C14.0404 16.2535 11.3355 18.9583 7.9987 18.9583C4.66275 18.9583 1.95703 16.2536 1.95703 12.9167Z" fill="#142438"/>
<path fill-rule="evenodd" clip-rule="evenodd" d="M8.2392 10.5334C8.47282 10.6301 8.62516 10.858 8.62516 11.1109V14.7225C8.62516 15.0677 8.34533 15.3475 8.00016 15.3475C7.65498 15.3475 7.37516 15.0677 7.37516 14.7225V12.5744C7.14154 12.6901 6.85058 12.6508 6.65592 12.4563C6.41173 12.2124 6.41155 11.8166 6.65551 11.5725L7.55801 10.6691C7.73671 10.4903 8.00558 10.4367 8.2392 10.5334Z" fill="#142438"/>
<path fill-rule="evenodd" clip-rule="evenodd" d="M6.47266 14.7251C6.47266 14.3799 6.75248 14.1001 7.09766 14.1001H8.89766C9.24283 14.1001 9.52266 14.3799 9.52266 14.7251C9.52266 15.0703 9.24283 15.3501 8.89766 15.3501H7.09766C6.75248 15.3501 6.47266 15.0703 6.47266 14.7251Z" fill="#142438"/>
<path fill-rule="evenodd" clip-rule="evenodd" d="M12.164 3.9585C9.86222 3.9585 7.93871 5.58403 7.47868 7.75001C7.40697 8.08766 7.07512 8.30324 6.73747 8.23152C6.39982 8.15981 6.18424 7.82796 6.25595 7.49032C6.83592 4.75963 9.25907 2.7085 12.164 2.7085C15.5008 2.7085 18.2056 5.41332 18.2056 8.75016C18.2056 11.6559 16.1554 14.0782 13.4238 14.6582C13.0861 14.7299 12.7543 14.5143 12.6826 14.1766C12.6109 13.839 12.8265 13.5071 13.1642 13.4355C15.3309 12.9754 16.9556 11.0528 16.9556 8.75016C16.9556 6.10367 14.8105 3.9585 12.164 3.9585Z" fill="#142438"/>
</svg>
