<svg width="20" height="20" viewBox="0 0 20 20" fill="none" xmlns="http://www.w3.org/2000/svg">
<path d="M15.7143 7.85715H9.28572C8.49674 7.85715 7.85715 8.49674 7.85715 9.28572V15.7143C7.85715 16.5033 8.49674 17.1429 9.28572 17.1429H15.7143C16.5033 17.1429 17.1429 16.5033 17.1429 15.7143V9.28572C17.1429 8.49674 16.5033 7.85715 15.7143 7.85715Z" stroke="#9198A1" stroke-width="1.5" stroke-linecap="round" stroke-linejoin="round"/>
<path d="M5 12.1429H4.28572C3.90684 12.1429 3.54348 11.9924 3.27557 11.7244C3.00766 11.4565 2.85715 11.0932 2.85715 10.7143V4.28572C2.85715 3.90684 3.00766 3.54348 3.27557 3.27557C3.54348 3.00766 3.90684 2.85715 4.28572 2.85715H10.7143C11.0932 2.85715 11.4565 3.00766 11.7244 3.27557C11.9924 3.54348 12.1429 3.90684 12.1429 4.28572V5" stroke="#9198A1" stroke-width="1.5" stroke-linecap="round" stroke-linejoin="round"/>
</svg>
