<svg width="20" height="20" viewBox="0 0 20 20" fill="none" xmlns="http://www.w3.org/2000/svg">
<path d="M8.75 17.5H11.25" stroke="#142438" stroke-width="1.5" stroke-linecap="round" stroke-linejoin="round"/>
<path d="M11.25 2.5H8.75" stroke="#142438" stroke-width="1.5" stroke-linecap="round" stroke-linejoin="round"/>
<path d="M2.5 8.75V11.25" stroke="#142438" stroke-width="1.5" stroke-linecap="round" stroke-linejoin="round"/>
<path d="M17.5 11.25V8.75" stroke="#142438" stroke-width="1.5" stroke-linecap="round" stroke-linejoin="round"/>
<path d="M7.70825 12.2917L12.2916 7.70834" stroke="#142438" stroke-width="1.5" stroke-linecap="round" stroke-linejoin="round"/>
<path d="M8.38388 6.61612C8.87204 7.10427 8.87204 7.89572 8.38388 8.38388C7.89573 8.87204 7.10428 8.87204 6.61612 8.38388C6.12796 7.89573 6.12796 7.10427 6.61612 6.61612C7.10427 6.12796 7.89573 6.12796 8.38388 6.61612Z" stroke="#142438" stroke-width="1.5" stroke-linecap="round" stroke-linejoin="round"/>
<path d="M13.3839 11.6161C13.8721 12.1042 13.8721 12.8957 13.3839 13.3839C12.8958 13.872 12.1043 13.872 11.6161 13.3839C11.128 12.8957 11.128 12.1042 11.6161 11.6161C12.1043 11.1279 12.8958 11.1279 13.3839 11.6161Z" stroke="#142438" stroke-width="1.5" stroke-linecap="round" stroke-linejoin="round"/>
<path d="M17.5 5V3.51167C17.5 2.95333 17.0467 2.5 16.4883 2.5H15" stroke="#142438" stroke-width="1.5" stroke-linecap="round" stroke-linejoin="round"/>
<path d="M2.5 15V16.4883C2.5 17.0467 2.95333 17.5 3.51167 17.5H5" stroke="#142438" stroke-width="1.5" stroke-linecap="round" stroke-linejoin="round"/>
<path d="M5 2.5H3.51167C2.95333 2.5 2.5 2.95333 2.5 3.51167V5" stroke="#142438" stroke-width="1.5" stroke-linecap="round" stroke-linejoin="round"/>
<path d="M15 17.5H16.4883C17.0467 17.5 17.5 17.0467 17.5 16.4883V15" stroke="#142438" stroke-width="1.5" stroke-linecap="round" stroke-linejoin="round"/>
</svg>
