<svg width="20" height="20" viewBox="0 0 20 20" fill="none" xmlns="http://www.w3.org/2000/svg">
<path fill-rule="evenodd" clip-rule="evenodd" d="M17 17H6C4.895 17 4 16.105 4 15V8C4 6.895 4.895 6 6 6H17C18.105 6 19 6.895 19 8V15C19 16.105 18.105 17 17 17Z" stroke="#142438" stroke-width="1.5" stroke-linecap="round" stroke-linejoin="round"/>
<path d="M4 10H19" stroke="#142438" stroke-width="1.5" stroke-linecap="round" stroke-linejoin="round"/>
<path d="M4 14H3C1.895 14 1 13.105 1 12V5C1 3.895 1.895 3 3 3H14C15.105 3 16 3.895 16 5V6" stroke="#142438" stroke-width="1.5" stroke-linecap="round" stroke-linejoin="round"/>
<path d="M10 14H7" stroke="#142438" stroke-width="1.5" stroke-linecap="round" stroke-linejoin="round"/>
</svg>
