<svg width="20" height="20" viewBox="0 0 20 20" fill="none" xmlns="http://www.w3.org/2000/svg">
<path d="M4.95801 10.832H10.708" stroke="#142438" stroke-width="1.5" stroke-linecap="round" stroke-linejoin="round"/>
<path d="M5 13.332H8.24167" stroke="#142438" stroke-width="1.5" stroke-linecap="round" stroke-linejoin="round"/>
<path d="M8.24417 17.5H4.14167C3.235 17.5 2.5 16.7542 2.5 15.8333V4.16667C2.5 3.24583 3.235 2.5 4.14167 2.5H12.525C13.4317 2.5 14.1667 3.24583 14.1667 4.16667V9.16667" stroke="#142438" stroke-width="1.5" stroke-linecap="round" stroke-linejoin="round"/>
<path d="M16.0772 10.5875L10.833 15.8317V17.4983H12.4997L17.7438 12.2542C18.0697 11.9283 18.0697 11.4008 17.7438 11.0758L17.2555 10.5875C16.9305 10.2625 16.4022 10.2625 16.0772 10.5875Z" stroke="#142438" stroke-width="1.5" stroke-linecap="round" stroke-linejoin="round"/>
<path d="M6.25 7.5H5V5H6.25C6.94 5 7.5 5.56 7.5 6.25C7.5 6.94 6.94 7.5 6.25 7.5Z" stroke="#142438" stroke-width="1.5" stroke-linecap="round" stroke-linejoin="round"/>
</svg>
