<svg xmlns="http://www.w3.org/2000/svg" x="0" y="0" viewBox="0 0 20 20" xml:space="preserve"><path fill="#f00" d="M9.4 6.8c.4-1.1.4-2.6.5-4.8-3.3 0-5.6 0-6.7 1.2C2 4.3 2 6.7 2 9.9c3.5-.1 5.2-.2 6.5-1.5.4-.4.7-1 .9-1.6zM18 9.9c0-3.2 0-5.6-1.2-6.8C15.7 2 13.4 2 10.1 2c.1 3.5.2 5.2 1.5 6.5 1.2 1.2 2.9 1.3 6.4 1.4zM8.5 11.5C7.2 10.2 5.6 10.1 2 10c0 3.2 0 5.6 1.2 6.8C4.3 18 6.6 18 9.9 18c-.1-3.5-.2-5.2-1.4-6.5zM18 10.1c-3.5.1-5.2.2-6.5 1.5-.6.6-1 1.4-1.2 2.4-.1.5-.1 1-.2 1.6v.2c0 .7-.1 1.4-.1 2.3 3.3 0 5.6 0 6.8-1.2 1.2-1.2 1.2-3.6 1.2-6.8z"/></svg>
