<svg width="20" height="20" viewBox="0 0 20 20" fill="none" xmlns="http://www.w3.org/2000/svg">
<path d="M4 2H10C10.4142 2 10.75 2.33579 10.75 2.75C10.75 3.16421 10.4142 3.5 10 3.5H4C3.72386 3.5 3.5 3.72386 3.5 4V16C3.5 16.2761 3.72386 16.5 4 16.5H16C16.2761 16.5 16.5 16.2761 16.5 16V10C16.5 9.58579 16.8358 9.25 17.25 9.25C17.6642 9.25 18 9.58579 18 10V16C18 17.1046 17.1046 18 16 18H4C2.89543 18 2 17.1046 2 16V4C2 2.89543 2.89543 2 4 2Z" fill="#142438"/>
<path fill-rule="evenodd" clip-rule="evenodd" d="M14.2918 2.82543C15.0591 2.05819 16.3029 2.05819 17.0701 2.82543L17.1746 2.9299C17.9418 3.69714 17.9418 4.94093 17.1746 5.70817L12.0768 10.806C11.9042 10.9772 11.6879 11.1009 11.448 11.1609L9.18196 11.7276C8.92637 11.7915 8.65598 11.7166 8.46969 11.5303C8.28339 11.344 8.2085 11.0736 8.27242 10.8181L8.83908 8.55204C8.83908 8.55202 8.83907 8.55205 8.83908 8.55204C8.89864 8.31381 9.02185 8.09542 9.19609 7.92118L14.2918 2.82543ZM16.0095 3.88609C15.828 3.70464 15.534 3.70464 15.3525 3.88609L10.2848 8.9538L10.0309 9.96912L11.0462 9.71522L16.1139 4.64751C16.2954 4.46606 16.2954 4.17201 16.1139 3.99056L16.0095 3.88609ZM11.0841 9.70574C11.0841 9.70574 11.0841 9.70573 11.0841 9.70574V9.70574Z" fill="#142438"/>
</svg>
