<svg width="20" height="20" viewBox="0 0 20 20" fill="none" xmlns="http://www.w3.org/2000/svg">
  <path d="M2.5 8.08582V15.8333C2.5 16.7541 3.24583 17.5 4.16667 17.5H15.8325C16.7533 17.5 17.4992 16.7541 17.4992 15.8333V8.08582" stroke="#171D23" stroke-width="1.5" stroke-linecap="round" stroke-linejoin="round"/>
  <path d="M7.6 12.4L2.99166 17.0084" stroke="#171D23" stroke-width="1.5" stroke-linecap="round" stroke-linejoin="round"/>
  <path d="M17.0083 17.0084L12.4 12.4" stroke="#171D23" stroke-width="1.5" stroke-linecap="round" stroke-linejoin="round"/>
  <path d="M5 5.51831L3.23833 6.70331C2.25667 7.36331 2.25667 8.80831 3.23833 9.46914L8.13333 12.7625C9.26167 13.5216 10.7367 13.5216 11.865 12.7625L16.76 9.46914C17.7417 8.80831 17.7417 7.36414 16.76 6.70331L15 5.51831" stroke="#171D23" stroke-width="1.5" stroke-linecap="round" stroke-linejoin="round"/>
  <path d="M15 10.6542V3.25167C15 2.79167 14.6267 2.41833 14.1667 2.41833H5.83333C5.37333 2.41833 5 2.79167 5 3.25167V10.6542" stroke="#171D23" stroke-width="1.5" stroke-linecap="round" stroke-linejoin="round"/>
  <path d="M7.5 5.41663H12.5" stroke="#171D23" stroke-width="1.5" stroke-linecap="round" stroke-linejoin="round"/>
  <path d="M7.5 8.33337H12.5" stroke="#171D23" stroke-width="1.5" stroke-linecap="round" stroke-linejoin="round"/>
</svg>
