<svg width="20" height="20" viewBox="0 0 20 20" fill="none" xmlns="http://www.w3.org/2000/svg">
<path d="M11.5142 11.5143C11.318 11.7248 11.0815 11.8937 10.8186 12.0108C10.5558 12.1279 10.272 12.1909 9.98432 12.196C9.69659 12.2011 9.4108 12.1481 9.14397 12.0404C8.87715 11.9326 8.63477 11.7722 8.43129 11.5687C8.2278 11.3652 8.06739 11.1228 7.95962 10.856C7.85184 10.5892 7.79891 10.3034 7.80399 10.0157C7.80907 9.72794 7.87204 9.44418 7.98916 9.18133C8.10628 8.91847 8.27515 8.6819 8.48568 8.48572L11.5142 11.5143ZM14.2428 14.2429C13.0218 15.1736 11.535 15.6892 9.99994 15.7143C4.99997 15.7143 2.14282 10 2.14282 10C3.03132 8.34422 4.26363 6.89759 5.75711 5.75715L14.2428 14.2429ZM8.49997 4.45715C8.99163 4.34207 9.49501 4.28454 9.99994 4.28572C14.9999 4.28572 17.8571 10 17.8571 10C17.4235 10.8112 16.9064 11.5748 16.3142 12.2786L8.49997 4.45715Z" stroke="#142438" stroke-width="1.5" stroke-linecap="round" stroke-linejoin="round"/>
<path d="M2.14282 2.14285L17.8571 17.8571" stroke="#142438" stroke-width="1.5" stroke-linecap="round" stroke-linejoin="round"/>
</svg>
