<svg width="20" height="20" viewBox="0 0 20 20" fill="none" xmlns="http://www.w3.org/2000/svg">
<path d="M8.23744 8.76256C7.55402 8.07915 6.44598 8.07915 5.76256 8.76256C5.07915 9.44598 5.07915 10.554 5.76256 11.2374C6.44598 11.9209 7.55402 11.9209 8.23744 11.2374C8.92085 10.554 8.92085 9.44598 8.23744 8.76256Z" stroke="#142438" stroke-width="1.5" stroke-linecap="round" stroke-linejoin="round"/>
<path d="M11.7626 6.23744C12.446 6.92085 13.554 6.92085 14.2374 6.23744C14.9209 5.55402 14.9209 4.44598 14.2374 3.76256C13.554 3.07915 12.446 3.07915 11.7626 3.76256C11.0791 4.44598 11.0791 5.55402 11.7626 6.23744Z" stroke="#142438" stroke-width="1.5" stroke-linecap="round" stroke-linejoin="round"/>
<path d="M11.7626 16.2374C12.446 16.9209 13.554 16.9209 14.2374 16.2374C14.9209 15.554 14.9209 14.446 14.2374 13.7626C13.554 13.0791 12.446 13.0791 11.7626 13.7626C11.0791 14.446 11.0791 15.554 11.7626 16.2374Z" stroke="#142438" stroke-width="1.5" stroke-linecap="round" stroke-linejoin="round"/>
<path d="M11.25 4.5H2.75C2.33579 4.5 2 4.83579 2 5.25C2 5.66421 2.33579 6 2.75 6H11.25C11.6642 6 12 5.66421 12 5.25C12 4.83579 11.6642 4.5 11.25 4.5Z" fill="#142438"/>
<path d="M17.25 9.5H8.75C8.33579 9.5 8 9.83579 8 10.25C8 10.6642 8.33579 11 8.75 11H17.25C17.6642 11 18 10.6642 18 10.25C18 9.83579 17.6642 9.5 17.25 9.5Z" fill="#142438"/>
<path d="M11.25 14.5H2.75C2.33579 14.5 2 14.8358 2 15.25C2 15.6642 2.33579 16 2.75 16H11.25C11.6642 16 12 15.6642 12 15.25C12 14.8358 11.6642 14.5 11.25 14.5Z" fill="#142438"/>
<path d="M17.25 4.5H14.75C14.3358 4.5 14 4.83579 14 5.25C14 5.66421 14.3358 6 14.75 6H17.25C17.6642 6 18 5.66421 18 5.25C18 4.83579 17.6642 4.5 17.25 4.5Z" fill="#142438"/>
<path d="M5.25 9.5H2.75C2.33579 9.5 2 9.83579 2 10.25C2 10.6642 2.33579 11 2.75 11H5.25C5.66421 11 6 10.6642 6 10.25C6 9.83579 5.66421 9.5 5.25 9.5Z" fill="#142438"/>
<path d="M17.25 14.5H14.75C14.3358 14.5 14 14.8358 14 15.25C14 15.6642 14.3358 16 14.75 16H17.25C17.6642 16 18 15.6642 18 15.25C18 14.8358 17.6642 14.5 17.25 14.5Z" fill="#142438"/>
</svg>
