<svg width="20" height="20" viewBox="0 0 20 20" fill="none" xmlns="http://www.w3.org/2000/svg">
<path d="M6.80838 17.5467C5.67088 15.9233 5.00171 13.9483 5.00171 11.8158C5.00171 9.05418 7.23921 6.81584 9.99921 6.81584C12.7592 6.81584 14.9967 9.05418 14.9967 11.8158" stroke="#142438" stroke-width="1.5" stroke-linecap="round" stroke-linejoin="round"/>
<path d="M15.2674 16.8025C15.1774 16.8075 15.0891 16.8158 14.9982 16.8158C12.2382 16.8158 10.0007 14.5775 10.0007 11.8158" stroke="#142438" stroke-width="1.5" stroke-linecap="round" stroke-linejoin="round"/>
<path d="M11.0391 18.1842C8.91571 16.86 7.50154 14.5033 7.50154 11.8158C7.50154 10.435 8.62071 9.31584 10.0007 9.31584C11.3807 9.31584 12.4999 10.435 12.4999 11.8158C12.4999 13.1967 13.6191 14.3158 14.9991 14.3158C16.3791 14.3158 17.4982 13.1967 17.4982 11.8158C17.4982 7.67334 14.1416 4.31584 10.0016 4.31584C5.86154 4.31584 2.50488 7.67334 2.50488 11.8158C2.50488 12.7392 2.60821 13.6383 2.79821 14.505" stroke="#142438" stroke-width="1.5" stroke-linecap="round" stroke-linejoin="round"/>
<path d="M16.9775 4.97751C15.2733 3.04168 12.7817 1.81584 9.99996 1.81584C7.21829 1.81584 4.72663 3.04168 3.02246 4.97751" stroke="#142438" stroke-width="1.5" stroke-linecap="round" stroke-linejoin="round"/>
</svg>
