<svg width="21" height="20" viewBox="0 0 21 20" fill="none" xmlns="http://www.w3.org/2000/svg">
<path d="M7.44531 14.1667H14.0953" stroke="#142438" stroke-width="1.5" stroke-linecap="round" stroke-linejoin="round"/>
<path d="M7.44531 10.8333H14.0953" stroke="#142438" stroke-width="1.5" stroke-linecap="round" stroke-linejoin="round"/>
<path d="M16.6029 7.5H11.2154C10.937 7.5 10.6762 7.36083 10.522 7.12917L9.35036 5.37167C9.19536 5.13917 8.93536 5 8.65703 5H4.9362C4.01536 5 3.26953 5.74583 3.26953 6.66667V15.8333C3.26953 16.7542 4.01536 17.5 4.9362 17.5H16.6029C17.5237 17.5 18.2695 16.7542 18.2695 15.8333V9.16667C18.2695 8.24583 17.5237 7.5 16.6029 7.5Z" stroke="#142438" stroke-width="1.5" stroke-linecap="round" stroke-linejoin="round"/>
<path d="M4.93555 5V4.16667C4.93555 3.24583 5.68138 2.5 6.60221 2.5H14.9355C15.8564 2.5 16.6022 3.24583 16.6022 4.16667V7.5" stroke="#142438" stroke-width="1.5" stroke-linecap="round" stroke-linejoin="round"/>
</svg>
