<svg width="21" height="20" viewBox="0 0 21 20" fill="none" xmlns="http://www.w3.org/2000/svg">
<path fill-rule="evenodd" clip-rule="evenodd" d="M17.4362 6.6665H4.10286C3.64286 6.6665 3.26953 7.03984 3.26953 7.49984V9.1665C3.26953 9.6265 3.64286 9.99984 4.10286 9.99984H17.4362C17.8962 9.99984 18.2695 9.6265 18.2695 9.1665V7.49984C18.2695 7.03984 17.8962 6.6665 17.4362 6.6665Z" stroke="#142438" stroke-width="1.5" stroke-linecap="round" stroke-linejoin="round"/>
<path d="M10.7695 17.4998V6.6665" stroke="#142438" stroke-width="1.5" stroke-linecap="round" stroke-linejoin="round"/>
<path d="M13.8491 5.51025C12.9507 6.44525 11.5366 6.66692 10.8516 6.66692" stroke="#142438" stroke-width="1.5" stroke-linecap="round" stroke-linejoin="round"/>
<path d="M10.8523 6.6666C10.8523 6.6666 10.4407 4.06994 11.4532 3.0166" stroke="#142438" stroke-width="1.5" stroke-linecap="round" stroke-linejoin="round"/>
<path d="M13.849 5.51007C14.5106 4.82174 14.5106 3.70507 13.849 3.01674C13.1873 2.3284 12.1148 2.3284 11.4531 3.01674" stroke="#142438" stroke-width="1.5" stroke-linecap="round" stroke-linejoin="round"/>
<path d="M7.68945 5.51025C8.58779 6.44525 10.002 6.66692 10.687 6.66692" stroke="#142438" stroke-width="1.5" stroke-linecap="round" stroke-linejoin="round"/>
<path d="M10.6868 6.6666C10.6868 6.6666 11.0984 4.06994 10.0859 3.0166" stroke="#142438" stroke-width="1.5" stroke-linecap="round" stroke-linejoin="round"/>
<path d="M7.68961 5.51007C7.02794 4.82174 7.02794 3.70507 7.68961 3.01674C8.35128 2.3284 9.42378 2.3284 10.0854 3.01674" stroke="#142438" stroke-width="1.5" stroke-linecap="round" stroke-linejoin="round"/>
<path d="M16.6022 10V16.6667C16.6022 17.1267 16.2289 17.5 15.7689 17.5H5.76888C5.30888 17.5 4.93555 17.1267 4.93555 16.6667V10" stroke="#142438" stroke-width="1.5" stroke-linecap="round" stroke-linejoin="round"/>
</svg>
