<svg width="24" height="24" viewBox="0 0 24 24" fill="none" xmlns="http://www.w3.org/2000/svg">
<path d="M16 13.202H20.5C21.328 13.202 22 12.53 22 11.702C22 10.874 21.328 10.202 20.5 10.202H17H12L13.494 7.21499C13.796 6.60999 13.678 5.87999 13.2 5.40199C12.553 4.75499 11.492 4.79599 10.897 5.48999L6.482 10.64C6.171 11.002 6 11.464 6 11.942V17.412C6 18.431 6.766 19.287 7.779 19.4L13.073 19.988C14.147 20.107 15.121 19.352 15.274 18.283L16 13.202Z" stroke="#142438" stroke-width="1.5" stroke-linecap="round" stroke-linejoin="round"/>
<path d="M5 19.202H3C2.448 19.202 2 18.754 2 18.202V11.202C2 10.65 2.448 10.202 3 10.202H5C5.552 10.202 6 10.65 6 11.202V18.202C6 18.754 5.552 19.202 5 19.202Z" stroke="#142438" stroke-width="1.5" stroke-linecap="round" stroke-linejoin="round"/>
</svg>
