<svg width="24" height="24" viewBox="0 0 24 24" fill="none" xmlns="http://www.w3.org/2000/svg">
<path d="M18.011 19V21C18.011 21.552 17.563 22 17.011 22H10.011C9.45899 22 9.01099 21.552 9.01099 21V19C9.01099 18.448 9.45899 18 10.011 18H17.011C17.563 18 18.011 18.448 18.011 19Z" stroke="#142438" stroke-width="1.5" stroke-linecap="round" stroke-linejoin="round"/>
<path d="M12.011 8V3.5C12.011 2.672 11.339 2 10.511 2C9.68301 2 9.01101 2.672 9.01101 3.5V7V12L6.02401 10.506C5.41901 10.204 4.68901 10.322 4.21101 10.8C3.56401 11.447 3.60501 12.508 4.29901 13.103L9.44902 17.518C9.81102 17.829 10.273 18 10.75 18H16.161C17.18 18 18.036 17.234 18.149 16.221L18.737 10.927C18.856 9.853 18.101 8.879 17.032 8.726L12.011 8Z" stroke="#142438" stroke-width="1.5" stroke-linecap="round" stroke-linejoin="round"/>
</svg>
