<svg width="20" height="20" viewBox="0 0 20 20" fill="none" xmlns="http://www.w3.org/2000/svg">
<path d="M11.3603 4.83697L11.3604 4.83684C11.6844 4.48839 12.0662 4.21511 12.4823 4.02978C12.8983 3.84451 13.342 3.75 13.7887 3.75C14.2354 3.75 14.6791 3.84451 15.0951 4.02978C15.5112 4.21511 15.893 4.48839 16.217 4.83684L16.2173 4.8371C16.5415 5.18549 16.8014 5.60202 16.9795 6.06417C17.1577 6.52637 17.25 7.02344 17.25 7.52656C17.25 8.02967 17.1577 8.52674 16.9795 8.98894C16.8014 9.45109 16.5415 9.86762 16.2173 10.216L16.2171 10.2161L15.4058 11.0882L10.1828 16.7022C10.084 16.8085 9.91564 16.8085 9.81676 16.7022L4.59381 11.0882L3.78245 10.2161C3.12683 9.51145 2.75 8.54482 2.75 7.52656C2.75 6.5083 3.12683 5.54167 3.78245 4.83697C4.43636 4.13411 5.31119 3.75044 6.21089 3.75044C7.11058 3.75044 7.98541 4.13411 8.63933 4.83697L9.45069 5.70907C9.59257 5.86158 9.79149 5.94821 9.9998 5.94821C10.2081 5.94821 10.407 5.86158 10.5489 5.70907L11.3603 4.83697Z" stroke="#142438" stroke-width="1.5" stroke-linecap="round" stroke-linejoin="round"/>
</svg>
