<svg width="20" height="20" viewBox="0 0 20 20" fill="none" xmlns="http://www.w3.org/2000/svg">
  <path d="M8.33333 15H11.6667" stroke="#171D23" stroke-width="1.5" stroke-linecap="round" stroke-linejoin="round"/>
  <path d="M14.1492 2.5H5.85084C5.39084 2.5 5.0175 2.87333 5.0175 3.33333V5.315C5.0175 5.66583 5.12834 6.00833 5.33417 6.2925L8.0175 10L5.33417 13.7075C5.12834 13.9917 5.0175 14.3342 5.0175 14.685V16.6667C5.0175 17.1267 5.39084 17.5 5.85084 17.5H14.1483C14.6083 17.5 14.9817 17.1267 14.9817 16.6667V14.715C14.9817 14.345 14.8583 13.9858 14.6317 13.6933L11.7675 10L14.6325 6.30583C14.8592 6.01333 14.9825 5.65417 14.9825 5.28417V3.33333C14.9825 2.87333 14.6092 2.5 14.1492 2.5V2.5Z" stroke="#171D23" stroke-width="1.5" stroke-linecap="round" stroke-linejoin="round"/>
</svg>
