<svg width="21" height="20" viewBox="0 0 21 20" fill="none" xmlns="http://www.w3.org/2000/svg">
<path d="M8.67934 6.79917C9.41157 7.53141 9.41157 8.71859 8.67934 9.45082C7.94711 10.1831 6.75992 10.1831 6.02769 9.45082C5.29546 8.71859 5.29546 7.53141 6.02769 6.79917C6.75992 6.06694 7.94711 6.06694 8.67934 6.79917Z" stroke="#142438" stroke-width="1.5" stroke-linecap="round" stroke-linejoin="round"/>
<path d="M1.93652 15.4167V4.61752C1.93652 3.67835 2.69819 2.91669 3.63736 2.91669H16.9365C17.8574 2.91669 18.6032 3.66252 18.6032 4.58335V15.4167C18.6032 16.3375 17.8574 17.0834 16.9365 17.0834H3.60319C2.68236 17.0834 1.93652 16.3375 1.93652 15.4167Z" stroke="#142438" stroke-width="1.5" stroke-linecap="round" stroke-linejoin="round"/>
<path d="M12.7695 7.91669H16.1029" stroke="#142438" stroke-width="1.5" stroke-linecap="round" stroke-linejoin="round"/>
<path d="M14.7695 11.25H12.7695" stroke="#142438" stroke-width="1.5" stroke-linecap="round" stroke-linejoin="round"/>
<path d="M10.3491 13.75C10.2033 13.3842 9.97825 13.0559 9.68909 12.7884C9.19992 12.335 8.55825 12.0834 7.89159 12.0834H6.81492C6.14825 12.0834 5.50659 12.335 5.01742 12.7884C4.72826 13.0559 4.50326 13.3842 4.35742 13.75" stroke="#142438" stroke-width="1.5" stroke-linecap="round" stroke-linejoin="round"/>
</svg>
