<svg width="20" height="20" viewBox="0 0 20 20" fill="none" xmlns="http://www.w3.org/2000/svg">
<path d="M14.9999 3.57141H4.99986C4.21088 3.57141 3.57129 4.211 3.57129 4.99998V15C3.57129 15.789 4.21088 16.4286 4.99986 16.4286H14.9999C15.7889 16.4286 16.4285 15.789 16.4285 15V4.99998C16.4285 4.211 15.7889 3.57141 14.9999 3.57141Z" stroke="#142438" stroke-width="1.5" stroke-linecap="round" stroke-linejoin="round"/>
<path d="M7.50014 8.57145C8.09187 8.57145 8.57157 8.09175 8.57157 7.50002C8.57157 6.90828 8.09187 6.42859 7.50014 6.42859C6.9084 6.42859 6.42871 6.90828 6.42871 7.50002C6.42871 8.09175 6.9084 8.57145 7.50014 8.57145Z" stroke="#142438" stroke-width="1.5" stroke-linecap="round" stroke-linejoin="round"/>
<path d="M16.4286 12.1428L12.8571 8.57141L5 16.4286" stroke="#142438" stroke-width="1.5" stroke-linecap="round" stroke-linejoin="round"/>
</svg>
