<svg width="20" height="20" viewBox="0 0 20 20" fill="none" xmlns="http://www.w3.org/2000/svg">
<path fill-rule="evenodd" clip-rule="evenodd" d="M10.0007 2C7.82806 2 7.55539 2.0095 6.70205 2.04833C5.85037 2.08733 5.26903 2.22217 4.76036 2.42C4.23419 2.62433 3.78785 2.89767 3.34318 3.3425C2.89818 3.78717 2.62484 4.2335 2.41984 4.7595C2.2215 5.26833 2.0865 5.84983 2.04817 6.70117C2.01 7.5545 2 7.82733 2 10C2 12.1727 2.00967 12.4445 2.04833 13.2978C2.0875 14.1495 2.22234 14.7308 2.42 15.2395C2.62451 15.7657 2.89784 16.212 3.34268 16.6567C3.78719 17.1017 4.23352 17.3757 4.75936 17.58C5.26837 17.7778 5.84987 17.9127 6.70138 17.9517C7.55472 17.9905 7.82723 18 9.99975 18C12.1726 18 12.4444 17.9905 13.2978 17.9517C14.1495 17.9127 14.7315 17.7778 15.2405 17.58C15.7665 17.3757 16.2121 17.1017 16.6567 16.6567C17.1017 16.212 17.375 15.7657 17.58 15.2397C17.7767 14.7308 17.9117 14.1493 17.9517 13.298C17.99 12.4447 18 12.1727 18 10C18 7.82733 17.99 7.55467 17.9517 6.70133C17.9117 5.84967 17.7767 5.26833 17.58 4.75967C17.375 4.2335 17.1017 3.78717 16.6567 3.3425C16.2116 2.8975 15.7666 2.62417 15.24 2.42C14.73 2.22217 14.1483 2.08733 13.2966 2.04833C12.4433 2.0095 12.1716 2 9.99825 2H10.0007ZM14.271 4.76996C13.741 4.76996 13.311 5.19946 13.311 5.72963C13.311 6.25963 13.741 6.68963 14.271 6.68963C14.801 6.68963 15.231 6.25963 15.231 5.72963C15.231 5.19963 14.801 4.76963 14.271 4.76963V4.76996ZM10.0006 5.8917C7.73182 5.89179 5.89239 7.73125 5.89239 10C5.89239 12.2689 7.73191 14.1075 10.0008 14.1075C12.2696 14.1075 14.1085 12.2689 14.1085 10C14.1085 7.7312 12.2695 5.8917 10.0006 5.8917ZM10.0012 7.33341C11.4738 7.33341 12.6679 8.52725 12.6679 10.0001C12.6679 11.4727 11.4738 12.6667 10.0012 12.6667C8.52832 12.6667 7.33447 11.4727 7.33447 10.0001C7.33447 8.52725 8.52832 7.33341 10.0012 7.33341Z" fill="#99A1AB"/>
</svg>
