<svg width="20" height="20" viewBox="0 0 20 20" fill="none" xmlns="http://www.w3.org/2000/svg">
<path d="M6.66675 8.33333V5.83333C6.66675 3.9925 8.15925 2.5 10.0001 2.5C11.8409 2.5 13.3334 3.9925 13.3334 5.83333V8.33333" stroke="#142438" stroke-width="1.5" stroke-linecap="round" stroke-linejoin="round"/>
<path d="M14.1668 17.5H5.83342C4.91259 17.5 4.16675 16.7541 4.16675 15.8333V9.99998C4.16675 9.07915 4.91259 8.33331 5.83342 8.33331H14.1668C15.0876 8.33331 15.8334 9.07915 15.8334 9.99998V15.8333C15.8334 16.7541 15.0876 17.5 14.1668 17.5Z" stroke="#142438" stroke-width="1.5" stroke-linecap="round" stroke-linejoin="round"/>
<path d="M7.50002 12.9508C7.49752 12.9508 7.49585 12.9525 7.49585 12.955C7.49585 12.9575 7.49752 12.9591 7.50002 12.9591C7.50252 12.9591 7.50419 12.9575 7.50419 12.955C7.50419 12.9525 7.50252 12.9508 7.50002 12.9508Z" stroke="#142438" stroke-width="1.5" stroke-linecap="round" stroke-linejoin="round"/>
<path d="M10.0042 12.9508C10.0017 12.9508 10 12.9525 10 12.955C10 12.9575 10.0025 12.9591 10.0042 12.9591C10.0067 12.9591 10.0083 12.9575 10.0083 12.955C10.0083 12.9525 10.0067 12.9508 10.0042 12.9508Z" stroke="#142438" stroke-width="1.5" stroke-linecap="round" stroke-linejoin="round"/>
<path d="M12.5 12.9508C12.4975 12.9508 12.4958 12.9525 12.4958 12.955C12.4958 12.9575 12.4975 12.9591 12.5 12.9591C12.5025 12.9591 12.5042 12.9575 12.5042 12.955C12.5042 12.9525 12.5025 12.9508 12.5 12.9508Z" stroke="#142438" stroke-width="1.5" stroke-linecap="round" stroke-linejoin="round"/>
</svg>
