<svg width="20" height="20" viewBox="0 0 20 20" fill="none" xmlns="http://www.w3.org/2000/svg">
<path d="M17.9881 5.44691C17.9881 5.42863 18.0007 5.41083 17.9998 5.39276L13.1172 10.0975L17.994 14.6519C17.9969 14.6193 17.9881 14.5865 17.9881 14.5533V5.44691Z" fill="#B0B0B0"/>
<path d="M12.372 10.8214L10.3787 12.7391C10.2779 12.8361 10.1476 12.8848 10.0173 12.8848C9.88965 12.8848 9.76202 12.8382 9.66185 12.7449L7.67403 10.8925L2.76538 15.6239C2.88474 15.6668 3.01285 15.7001 3.14701 15.7001H16.8876C17.0868 15.7001 17.2737 15.6394 17.4361 15.5489L12.372 10.8214Z" fill="#B0B0B0"/>
<path d="M10.0117 11.6455L17.4633 4.46746C17.2946 4.36716 17.0982 4.29987 16.8877 4.29987H3.14713C2.87303 4.29987 2.62188 4.40629 2.42627 4.56861L10.0117 11.6455Z" fill="#B0B0B0"/>
<path d="M2 5.6217V14.5531C2 14.6557 2.02357 14.7545 2.04915 14.849L6.8969 10.1807L2 5.6217Z" fill="#B0B0B0"/>
</svg>
