<svg width="20" height="20" viewBox="0 0 20 20" fill="none" xmlns="http://www.w3.org/2000/svg">
<path d="M4.27246 8.37083V8.2275C4.27246 5.06417 6.83663 2.5 9.99996 2.5C13.1633 2.5 15.7275 5.06417 15.7275 8.2275V8.37083C15.7275 11.255 12.0758 15.5967 10.6042 17.23C10.28 17.59 9.71996 17.59 9.39579 17.23C7.92413 15.5967 4.27246 11.255 4.27246 8.37083Z" stroke="#142438" stroke-width="1.5" stroke-linecap="round" stroke-linejoin="round"/>
<path d="M8.33325 8.29583C8.33325 9.21666 9.07908 9.96249 9.99991 9.96249C10.9207 9.96249 11.6666 9.21666 11.6666 8.29583V8.26499C11.6666 7.34416 10.9207 6.59833 9.99991 6.59833C9.07908 6.59833 8.33325 7.34416 8.33325 8.26499" stroke="#142438" stroke-width="1.5" stroke-linecap="round" stroke-linejoin="round"/>
</svg>
