<svg width="20" height="20" viewBox="0 0 20 20" fill="none" xmlns="http://www.w3.org/2000/svg">
<path d="M10 18.3333V17.5" stroke="#142438" stroke-width="1.5" stroke-linecap="round" stroke-linejoin="round"/>
<path d="M4.7417 16.925L5.25837 16.4083" stroke="#142438" stroke-width="1.5" stroke-linecap="round" stroke-linejoin="round"/>
<path d="M16.25 11.6667H17.0833" stroke="#142438" stroke-width="1.5" stroke-linecap="round" stroke-linejoin="round"/>
<path d="M2.91675 11.6667H3.75009" stroke="#142438" stroke-width="1.5" stroke-linecap="round" stroke-linejoin="round"/>
<path d="M14.7417 16.4083L15.2583 16.925" stroke="#142438" stroke-width="1.5" stroke-linecap="round" stroke-linejoin="round"/>
<path d="M12.4555 9.21125C13.8116 10.5673 13.8116 12.766 12.4555 14.1221C11.0994 15.4782 8.90076 15.4782 7.54466 14.1221C6.18857 12.766 6.18857 10.5674 7.54466 9.21125C8.90075 7.85516 11.0994 7.85516 12.4555 9.21125Z" stroke="#142438" stroke-width="1.5" stroke-linecap="round" stroke-linejoin="round"/>
<path d="M13.6917 5.00002H6.30835" stroke="#142438" stroke-width="1.5" stroke-linecap="round" stroke-linejoin="round"/>
<path d="M13.0632 10.065L16.2432 6.50001C16.5157 6.19501 16.6666 5.80001 16.6666 5.39084V3.33334C16.6666 2.41667 15.9166 1.66667 14.9999 1.66667H4.99991C4.07908 1.66667 3.33325 2.41251 3.33325 3.33334V5.39084C3.33325 5.80001 3.48408 6.19501 3.75658 6.50001L6.93658 10.065" stroke="#142438" stroke-width="1.5" stroke-linecap="round" stroke-linejoin="round"/>
<path d="M3.80835 2.19167L9.23335 8.28333" stroke="#142438" stroke-width="1.5" stroke-linecap="round" stroke-linejoin="round"/>
<path d="M16.1916 2.19167L10.7666 8.28333" stroke="#142438" stroke-width="1.5" stroke-linecap="round" stroke-linejoin="round"/>
</svg>
