<svg width="20" height="20" viewBox="0 0 20 20" fill="none" xmlns="http://www.w3.org/2000/svg">
<path fill-rule="evenodd" clip-rule="evenodd" d="M10.6145 7.79823C10.045 7.22871 9.12165 7.22871 8.55214 7.79823L8.11019 7.35629L8.55214 7.79823C7.98262 8.36774 7.98262 9.29111 8.55214 9.86062L8.11019 10.3026L8.55214 9.86062C9.12165 10.4301 10.045 10.4301 10.6145 9.86062C11.184 9.29111 11.184 8.36774 10.6145 7.79823L11.0565 7.35629L10.6145 7.79823ZM7.66825 6.91435C8.72592 5.85668 10.4407 5.85668 11.4984 6.91435C12.5561 7.97202 12.5561 9.68683 11.4984 10.7445C10.4407 11.8022 8.72592 11.8022 7.66825 10.7445C6.61058 9.68683 6.61058 7.97202 7.66825 6.91435Z" fill="#142438"/>
<path fill-rule="evenodd" clip-rule="evenodd" d="M1.0415 5.08073C1.0415 3.81472 2.06716 2.78906 3.33317 2.78906H15.8332C17.0992 2.78906 18.1248 3.81472 18.1248 5.08073V11.6507C18.1248 11.9959 17.845 12.2757 17.4998 12.2757C17.1547 12.2757 16.8748 11.9959 16.8748 11.6507V5.08073C16.8748 4.50507 16.4088 4.03906 15.8332 4.03906H3.33317C2.75752 4.03906 2.2915 4.50507 2.2915 5.08073V12.5807C2.2915 13.1564 2.75752 13.6224 3.33317 13.6224H10.2173C10.5625 13.6224 10.8423 13.9022 10.8423 14.2474C10.8423 14.5926 10.5625 14.8724 10.2173 14.8724H3.33317C2.06716 14.8724 1.0415 13.8467 1.0415 12.5807V5.08073Z" fill="#142438"/>
<path fill-rule="evenodd" clip-rule="evenodd" d="M3.5415 11.75C3.5415 11.4048 3.82133 11.125 4.1665 11.125H5.83317C6.17835 11.125 6.45817 11.4048 6.45817 11.75C6.45817 12.0952 6.17835 12.375 5.83317 12.375H4.1665C3.82133 12.375 3.5415 12.0952 3.5415 11.75Z" fill="#142438"/>
<path fill-rule="evenodd" clip-rule="evenodd" d="M12.708 5.91406C12.708 5.56888 12.9878 5.28906 13.333 5.28906H14.9997C15.3449 5.28906 15.6247 5.56888 15.6247 5.91406C15.6247 6.25924 15.3449 6.53906 14.9997 6.53906H13.333C12.9878 6.53906 12.708 6.25924 12.708 5.91406Z" fill="#142438"/>
<path fill-rule="evenodd" clip-rule="evenodd" d="M13.4364 12.4458C13.4469 12.7908 13.1757 13.079 12.8307 13.0896C11.6053 13.1269 10.625 14.1256 10.625 15.3557C10.625 16.6113 11.6435 17.6298 12.8992 17.6298C13.8082 17.6298 14.5908 17.0919 14.9542 16.3111C15.0999 15.9982 15.4717 15.8626 15.7846 16.0082C16.0975 16.1539 16.2331 16.5257 16.0875 16.8386C15.5292 18.0378 14.3184 18.8798 12.8992 18.8798C10.9532 18.8798 9.375 17.3017 9.375 15.3557C9.375 13.4425 10.8997 11.8978 12.7926 11.8401C13.1377 11.8296 13.4259 12.1008 13.4364 12.4458Z" fill="#142438"/>
<path fill-rule="evenodd" clip-rule="evenodd" d="M15.4338 11.4102C14.1782 11.4102 13.1597 12.4287 13.1597 13.6843C13.1597 14.94 14.1782 15.9585 15.4338 15.9585C16.6902 15.9585 17.708 14.9401 17.708 13.6843C17.708 12.4286 16.6902 11.4102 15.4338 11.4102ZM11.9097 13.6843C11.9097 11.7383 13.4878 10.1602 15.4338 10.1602C17.3808 10.1602 18.958 11.7384 18.958 13.6843C18.958 15.6302 17.3808 17.2085 15.4338 17.2085C13.4878 17.2085 11.9097 15.6303 11.9097 13.6843Z" fill="#142438"/>
</svg>
