<svg width="20" height="20" viewBox="0 0 20 20" fill="none" xmlns="http://www.w3.org/2000/svg">
<path fill-rule="evenodd" clip-rule="evenodd" d="M3.33333 11.458C3.21851 11.458 3.125 11.5515 3.125 11.6663V16.6663C3.125 16.7812 3.21851 16.8747 3.33333 16.8747H5C5.11482 16.8747 5.20833 16.7812 5.20833 16.6663V11.6663C5.20833 11.5515 5.11482 11.458 5 11.458H3.33333ZM1.875 11.6663C1.875 10.8612 2.52816 10.208 3.33333 10.208H5C5.80518 10.208 6.45833 10.8612 6.45833 11.6663V16.6663C6.45833 17.4715 5.80518 18.1247 5 18.1247H3.33333C2.52816 18.1247 1.875 17.4715 1.875 16.6663V11.6663Z" fill="#142438"/>
<path d="M10.833 14.1664H12.7772C13.138 14.1664 13.4888 14.0497 13.7772 13.8331L15.7905 12.3231C16.293 11.9464 16.9963 11.9964 17.4405 12.4406C17.9338 12.9339 17.9338 13.7331 17.4405 14.2256L15.713 15.9531C15.248 16.4181 14.6547 16.7356 14.0097 16.8647L11.568 17.3531C11.0838 17.4497 10.5847 17.4381 10.1055 17.3181L7.89717 16.7664C7.63301 16.6997 7.36217 16.6664 7.08967 16.6664H5.83301" stroke="#142438" stroke-width="1.5" stroke-linecap="round" stroke-linejoin="round"/>
<path fill-rule="evenodd" clip-rule="evenodd" d="M7.00035 10.9706C7.74595 10.4727 8.62257 10.208 9.51807 10.208C9.88918 10.208 10.2583 10.2534 10.6184 10.3432L12.5284 10.8207C13.3687 11.0304 13.9581 11.7858 13.9581 12.6513V12.9038C13.9581 13.9465 13.1133 14.7913 12.0706 14.7913H10.8331C10.4879 14.7913 10.2081 14.5115 10.2081 14.1663C10.2081 13.8212 10.4879 13.5413 10.8331 13.5413H12.0706C12.4229 13.5413 12.7081 13.2562 12.7081 12.9038V12.6513C12.7081 12.3587 12.5089 12.1041 12.2261 12.0336L10.316 11.5561C10.0547 11.491 9.78684 11.458 9.51807 11.458C8.86869 11.458 8.23374 11.65 7.6944 12.0102L6.1797 13.0197C5.89247 13.2112 5.50443 13.1335 5.313 12.8463C5.12157 12.5591 5.19922 12.171 5.48645 11.9796L7.00035 10.9706C7.00043 10.9706 7.00026 10.9707 7.00035 10.9706Z" fill="#142438"/>
<path fill-rule="evenodd" clip-rule="evenodd" d="M13.8659 4.73766C13.1864 4.05815 12.0847 4.05815 11.4051 4.73766C10.7256 5.41718 10.7256 6.51888 11.4051 7.1984C12.0847 7.87791 13.1864 7.87791 13.8659 7.1984C14.5454 6.51888 14.5454 5.41718 13.8659 4.73766ZM10.5213 3.85378C11.6889 2.68611 13.5821 2.68611 14.7498 3.85378C15.9174 5.02145 15.9174 6.91461 14.7498 8.08228C13.5821 9.24995 11.6889 9.24995 10.5213 8.08228C9.35359 6.91461 9.35359 5.02145 10.5213 3.85378Z" fill="#142438"/>
<path fill-rule="evenodd" clip-rule="evenodd" d="M7.75056 1.91706C8.91797 0.749651 10.8112 0.749651 11.9786 1.91706C12.4405 2.37893 12.7119 2.95318 12.8092 3.54416C12.8653 3.88476 12.6346 4.20631 12.294 4.26237C11.9534 4.31843 11.6319 4.08778 11.5758 3.74718C11.5181 3.39649 11.3595 3.06574 11.0947 2.80095C10.4155 2.12169 9.3137 2.12169 8.63444 2.80095C7.95519 3.4802 7.95519 4.58197 8.63444 5.26123C9.05672 5.68351 9.64163 5.84317 10.1902 5.73912C10.5293 5.67479 10.8564 5.89757 10.9207 6.2367C10.985 6.57583 10.7623 6.9029 10.4231 6.96722C9.4867 7.14484 8.47828 6.87283 7.75056 6.14511C6.58315 4.9777 6.58315 3.08447 7.75056 1.91706Z" fill="#142438"/>
</svg>
