<svg viewBox="0 0 20 20" fill="none" xmlns="http://www.w3.org/2000/svg">
  <path fill-rule="evenodd" clip-rule="evenodd"
        d="M10.0001 4.34451C10.9129 4.34451 11.6563 5.08723 11.6563 6.00086C11.6563 6.91328 10.9129 7.65648 10.0001 7.65648C9.0871 7.65648 8.34375 6.91328 8.34375 6.00086C8.34375 5.08723 9.0871 4.34451 10.0001 4.34451ZM10.0004 10C12.206 10 14 8.20627 14 6.00084C14 3.79445 12.206 2 10.0004 2C7.79424 2 6 3.79445 6 6.00084C6 8.20627 7.79424 10 10.0004 10Z"
        fill="#B0B0B0"></path>
  <path fill-rule="evenodd" clip-rule="evenodd"
        d="M11.6223 13.6263C12.4385 13.4348 13.226 13.1023 13.9508 12.6331C14.4997 12.277 14.665 11.5301 14.3193 10.9651C13.9738 10.3988 13.2488 10.2286 12.6993 10.5848C11.0568 11.6482 8.94209 11.6477 7.30051 10.5848C6.75084 10.2286 6.02603 10.3988 5.68077 10.9651C5.33504 11.5306 5.50011 12.277 6.04882 12.6331C6.77364 13.1018 7.56107 13.4348 8.37706 13.6263L6.13567 15.935C5.67718 16.4074 5.67718 17.1731 6.13615 17.6457C6.36576 17.8817 6.66591 17.9998 6.9663 17.9998C7.2674 17.9998 7.56803 17.8817 7.7974 17.6457L9.99968 15.3771L12.2036 17.6457C12.6617 18.1181 13.4054 18.1181 13.8639 17.6457C14.3236 17.1731 14.3236 16.4069 13.8639 15.935L11.6223 13.6263Z"
        fill="#B0B0B0"></path>
</svg>
