<svg width="20" height="20" viewBox="0 0 20 20" fill="none" xmlns="http://www.w3.org/2000/svg">
<path fill-rule="evenodd" clip-rule="evenodd" d="M9.99928 12.4033L11.6709 13.2817C11.9959 13.4525 12.3768 13.1767 12.3143 12.8142L11.9951 10.9533L13.3476 9.63666C13.6109 9.38 13.4659 8.9325 13.1018 8.88L11.2334 8.60833L10.3976 6.91416C10.2351 6.58416 9.76511 6.58416 9.60178 6.91416L8.76678 8.60833L6.89844 8.88C6.53428 8.9325 6.38928 9.38 6.65261 9.63666L8.00511 10.9533L7.68594 12.8142C7.62344 13.1767 8.00428 13.4525 8.32928 13.2817L10.0009 12.4033H9.99928Z" stroke="#142438" stroke-width="1.5" stroke-linecap="round" stroke-linejoin="round"/>
<path d="M17.9167 9.99998H17" stroke="#142438" stroke-width="1.5" stroke-linecap="round" stroke-linejoin="round"/>
<path d="M2.99991 9.99998H2.08325" stroke="#142438" stroke-width="1.5" stroke-linecap="round" stroke-linejoin="round"/>
<path d="M15.7168 4.28333L14.8418 5.15833" stroke="#142438" stroke-width="1.5" stroke-linecap="round" stroke-linejoin="round"/>
<path d="M4.30005 15.7417L5.18339 14.8583" stroke="#142438" stroke-width="1.5" stroke-linecap="round" stroke-linejoin="round"/>
<path d="M4.28345 4.29999L5.15845 5.18332" stroke="#142438" stroke-width="1.5" stroke-linecap="round" stroke-linejoin="round"/>
<path d="M15.7418 15.7167L14.8584 14.8417" stroke="#142438" stroke-width="1.5" stroke-linecap="round" stroke-linejoin="round"/>
<path d="M10 17.0333V17.9167" stroke="#142438" stroke-width="1.5" stroke-linecap="round" stroke-linejoin="round"/>
<path d="M10 2.08333V2.96666" stroke="#142438" stroke-width="1.5" stroke-linecap="round" stroke-linejoin="round"/>
</svg>
