<svg width="20" height="20" viewBox="0 0 20 20" fill="none" xmlns="http://www.w3.org/2000/svg">
<path d="M6.55286 8.11409C7.59439 9.15562 7.59439 10.8443 6.55286 11.8858C5.51133 12.9273 3.82268 12.9273 2.78115 11.8858C1.73962 10.8443 1.73962 9.15562 2.78115 8.11409C3.82268 7.07256 5.51133 7.07256 6.55286 8.11409Z" stroke="#142438" stroke-width="1.5" stroke-linecap="round" stroke-linejoin="round"/>
<path d="M17.2189 2.78115C18.2604 3.82268 18.2604 5.51133 17.2189 6.55286C16.1773 7.59439 14.4887 7.59439 13.4472 6.55286C12.4056 5.51133 12.4056 3.82268 13.4472 2.78115C14.4887 1.73962 16.1773 1.73962 17.2189 2.78115Z" stroke="#142438" stroke-width="1.5" stroke-linecap="round" stroke-linejoin="round"/>
<path d="M17.2189 13.4471C18.2604 14.4886 18.2604 16.1773 17.2189 17.2188C16.1773 18.2603 14.4887 18.2603 13.4472 17.2188C12.4056 16.1773 12.4056 14.4886 13.4472 13.4471C14.4887 12.4056 16.1773 12.4056 17.2189 13.4471Z" stroke="#142438" stroke-width="1.5" stroke-linecap="round" stroke-linejoin="round"/>
<path d="M7.04004 8.81001L12.96 5.85001" stroke="#142438" stroke-width="1.5" stroke-linecap="round" stroke-linejoin="round"/>
<path d="M7.04004 11.19L12.96 14.15" stroke="#142438" stroke-width="1.5" stroke-linecap="round" stroke-linejoin="round"/>
</svg>
