<svg width="20" height="20" viewBox="0 0 20 20" fill="none" xmlns="http://www.w3.org/2000/svg">
<path d="M17.5 10C17.5 5.865 14.135 2.5 10 2.5C5.86417 2.5 2.5 5.86417 2.5 10" stroke="#142438" stroke-width="1.5" stroke-linecap="round" stroke-linejoin="round"/>
<path d="M2.5 10C2.5 14.1358 5.86417 17.5 10 17.5C14.1358 17.5 17.5 14.135 17.5 10" stroke="#142438" stroke-width="1.5" stroke-linecap="round" stroke-linejoin="round"/>
<path d="M7.5 12.5H12.5" stroke="#142438" stroke-width="1.5" stroke-linecap="round" stroke-linejoin="round"/>
<path d="M12.7732 7.91666C12.6582 7.91666 12.5649 8.00999 12.5657 8.12499C12.5657 8.23999 12.6591 8.33332 12.7741 8.33332C12.8891 8.33332 12.9824 8.23999 12.9824 8.12499C12.9824 8.00999 12.8891 7.91666 12.7732 7.91666Z" stroke="#142438" stroke-width="1.5" stroke-linecap="round" stroke-linejoin="round"/>
<path d="M7.29076 7.91666C7.17576 7.91666 7.08243 8.00999 7.08326 8.12499C7.08326 8.23999 7.1766 8.33332 7.2916 8.33332C7.4066 8.33332 7.49993 8.23999 7.49993 8.12499C7.49993 8.00999 7.4066 7.91666 7.29076 7.91666Z" stroke="#142438" stroke-width="1.5" stroke-linecap="round" stroke-linejoin="round"/>
</svg>
