<svg width="20" height="20" viewBox="0 0 20 20" fill="none" xmlns="http://www.w3.org/2000/svg">
<path d="M10 2.5C5.86417 2.5 2.5 5.86417 2.5 10C2.5 14.1358 5.86417 17.5 10 17.5C14.1358 17.5 17.5 14.135 17.5 10C17.5 5.865 14.135 2.5 10 2.5Z" stroke="#142438" stroke-width="1.5" stroke-linecap="round" stroke-linejoin="round"/>
<path d="M12.7075 7.91666C12.5925 7.91666 12.4992 8.00999 12.5 8.12499C12.5 8.23999 12.5933 8.33332 12.7083 8.33332C12.8233 8.33332 12.9167 8.23999 12.9167 8.12499C12.9167 8.00999 12.8233 7.91666 12.7075 7.91666Z" stroke="#142438" stroke-width="1.5" stroke-linecap="round" stroke-linejoin="round"/>
<path d="M7.29076 7.91666C7.17576 7.91666 7.08243 8.00999 7.08326 8.12499C7.08326 8.23999 7.17659 8.33332 7.29159 8.33332C7.40659 8.33332 7.49993 8.23999 7.49993 8.12499C7.49993 8.00999 7.40659 7.91666 7.29076 7.91666Z" stroke="#142438" stroke-width="1.5" stroke-linecap="round" stroke-linejoin="round"/>
<path d="M12.9166 13.0733C12.9166 13.0733 11.8224 14.1667 9.99991 14.1667C8.17658 14.1667 7.08325 13.0733 7.08325 13.0733" stroke="#142438" stroke-width="1.5" stroke-linecap="round" stroke-linejoin="round"/>
</svg>
