<svg width="20" height="20" viewBox="0 0 20 20" fill="none" xmlns="http://www.w3.org/2000/svg">
<path d="M5.83325 8.33335C6.16241 7.92918 6.61241 7.70001 7.08325 7.70001C7.55408 7.70001 7.99158 7.92918 8.33325 8.33335" stroke="#142438" stroke-width="1.5" stroke-linecap="round" stroke-linejoin="round"/>
<path d="M11.6667 8.33335C11.9958 7.92918 12.4458 7.70001 12.9167 7.70001C13.3875 7.70001 13.825 7.92918 14.1667 8.33335" stroke="#142438" stroke-width="1.5" stroke-linecap="round" stroke-linejoin="round"/>
<path d="M15.3032 4.6967C18.2322 7.62563 18.2322 12.3744 15.3032 15.3033C12.3743 18.2322 7.62562 18.2322 4.6967 15.3033C1.76777 12.3743 1.76777 7.62562 4.6967 4.6967C7.62564 1.76777 12.3743 1.76777 15.3032 4.6967Z" stroke="#142438" stroke-width="1.5" stroke-linecap="round" stroke-linejoin="round"/>
<path d="M12.9166 12.24C12.9166 12.24 11.8224 13.3333 9.99991 13.3333C8.17658 13.3333 7.08325 12.24 7.08325 12.24" stroke="#142438" stroke-width="1.5" stroke-linecap="round" stroke-linejoin="round"/>
</svg>
