<svg width="24" height="24" viewBox="0 0 24 24" xmlns="http://www.w3.org/2000/svg">
<path d="M11.6368 3.28747C11.7797 2.97752 12.2203 2.97752 12.3632 3.28747L14.8687 8.71924C14.9269 8.84556 15.0466 8.93254 15.1848 8.94892L21.1249 9.65322C21.4639 9.69341 21.6 10.1124 21.3494 10.3441L16.9577 14.4054C16.8556 14.4999 16.8099 14.6406 16.837 14.7771L18.0027 20.6441C18.0693 20.9789 17.7129 21.2378 17.415 21.0711L12.1954 18.1494C12.074 18.0814 11.926 18.0814 11.8046 18.1494L6.58497 21.0711C6.28712 21.2378 5.93074 20.9789 5.99726 20.6441L7.16304 14.7771C7.19015 14.6406 7.14442 14.4999 7.04229 14.4054L2.65059 10.3441C2.39999 10.1124 2.53612 9.69341 2.87507 9.65322L8.81522 8.94892C8.95336 8.93254 9.07308 8.84556 9.13134 8.71924L11.6368 3.28747Z" stroke-width="1.25" stroke="#142438" fill="#142438"/>
</svg>
