<svg width="20" height="20" viewBox="0 0 20 20" fill="none" xmlns="http://www.w3.org/2000/svg">
<path d="M8.33325 1.66666H11.6666" stroke="#142438" stroke-width="1.5" stroke-linecap="round" stroke-linejoin="round"/>
<path d="M14.714 6.11928C17.3175 8.72277 17.3175 12.9439 14.714 15.5474C12.1105 18.1509 7.88937 18.1509 5.28587 15.5474C2.68238 12.9439 2.68238 8.72277 5.28587 6.11928C7.88937 3.51578 12.1105 3.51578 14.714 6.11928Z" stroke="#142438" stroke-width="1.5" stroke-linecap="round" stroke-linejoin="round"/>
<path d="M9.99826 10.4167C9.76826 10.4167 9.5816 10.6033 9.58326 10.8333C9.58326 11.0633 9.76993 11.25 9.99993 11.25C10.2299 11.25 10.4166 11.0633 10.4166 10.8333C10.4166 10.6033 10.2299 10.4167 9.99826 10.4167Z" stroke="#142438" stroke-width="1.5" stroke-linecap="round" stroke-linejoin="round"/>
<path d="M12.9466 13.78C12.1924 14.5333 11.1507 15 9.99992 15C7.69908 15 5.83325 13.1342 5.83325 10.8333C5.83325 10.5742 5.86325 10.3233 5.91241 10.0792" stroke="#142438" stroke-width="1.5" stroke-linecap="round" stroke-linejoin="round"/>
<path d="M7.05005 7.88333L9.70838 10.5417" stroke="#142438" stroke-width="1.5" stroke-linecap="round" stroke-linejoin="round"/>
<path d="M16.6668 4.16666L14.7168 6.11666" stroke="#142438" stroke-width="1.5" stroke-linecap="round" stroke-linejoin="round"/>
<path d="M15.8333 3.33331L17.5 4.99998" stroke="#142438" stroke-width="1.5" stroke-linecap="round" stroke-linejoin="round"/>
</svg>
