<svg width="20" height="20" viewBox="0 0 20 20" fill="none" xmlns="http://www.w3.org/2000/svg">
  <path d="M6.83325 4.66667V3" stroke="#171D23" stroke-width="1.5" stroke-linecap="round" stroke-linejoin="round"/>
  <path d="M7.66663 3.83337H5.99996" stroke="#171D23" stroke-width="1.5" stroke-linecap="round" stroke-linejoin="round"/>
  <path d="M3.66675 6V9.33333" stroke="#171D23" stroke-width="1.5" stroke-linecap="round" stroke-linejoin="round"/>
  <path d="M2.00004 7.66669H5.33337" stroke="#171D23" stroke-width="1.5" stroke-linecap="round" stroke-linejoin="round"/>
  <path fill-rule="evenodd" clip-rule="evenodd" d="M10.2528 3.83635C10.1285 4.0359 10.1268 4.28827 10.2482 4.48953C11.6449 6.80449 11.5926 9.60013 9.73389 11.4589C8.24746 12.9453 6.10535 13.3703 4.23539 12.7402C4.00352 12.6621 3.74738 12.7265 3.57999 12.9049C3.41259 13.0834 3.36473 13.3431 3.45751 13.5695C4.93023 17.1632 8.46854 18.4198 11.5772 17.8235C14.6899 17.2264 17.5 14.7475 17.5 10.8067C17.5 6.99043 14.5691 3.86478 10.8369 3.54396C10.6027 3.52383 10.377 3.6368 10.2528 3.83635ZM11.9021 5.00817C14.4145 5.74082 16.25 8.05846 16.25 10.8067C16.25 14.0392 13.9793 16.0899 11.3417 16.5959C9.07373 17.0309 6.62897 16.3057 5.22037 14.2311C7.1424 14.4451 9.14107 13.8195 10.6178 12.3428C12.6465 10.314 12.9022 7.47228 11.9021 5.00817Z" fill="#171D23"/>
</svg>
