<svg width="20" height="20" viewBox="0 0 20 20" fill="none" xmlns="http://www.w3.org/2000/svg">
<path d="M5.5 8.5H4.5C3.94772 8.5 3.5 8.94772 3.5 9.5V10.5C3.5 11.0523 3.94772 11.5 4.5 11.5H5.5C6.05228 11.5 6.5 11.0523 6.5 10.5V9.5C6.5 8.94772 6.05228 8.5 5.5 8.5Z" fill="#142438"/>
<path d="M10.5 8.5H9.5C8.94772 8.5 8.5 8.94772 8.5 9.5V10.5C8.5 11.0523 8.94772 11.5 9.5 11.5H10.5C11.0523 11.5 11.5 11.0523 11.5 10.5V9.5C11.5 8.94772 11.0523 8.5 10.5 8.5Z" fill="#142438"/>
<path d="M15.5 8.5H14.5C13.9477 8.5 13.5 8.94772 13.5 9.5V10.5C13.5 11.0523 13.9477 11.5 14.5 11.5H15.5C16.0523 11.5 16.5 11.0523 16.5 10.5V9.5C16.5 8.94772 16.0523 8.5 15.5 8.5Z" fill="#142438"/>
</svg>
