<svg width="20" height="20" viewBox="0 0 20 20" fill="none" xmlns="http://www.w3.org/2000/svg">
<path d="M10 17.25C5.99555 17.25 2.75 14.0045 2.75 10C2.75 5.99555 5.99555 2.75 10 2.75C14.0045 2.75 17.25 5.99555 17.25 10C17.25 14.0045 14.0045 17.25 10 17.25Z" stroke="#142438" stroke-width="1.5" stroke-linecap="round" stroke-linejoin="round"/>
<path d="M9.99988 11.0417V10.8334C9.99988 10.1525 10.4208 9.78336 10.8424 9.50003C11.2541 9.22253 11.6666 8.86086 11.6666 8.19419C11.6666 7.27336 10.9208 6.52753 9.99988 6.52753C9.07909 6.52753 8.33325 7.27336 8.33325 8.19419" stroke="#142438" stroke-width="1.5" stroke-linecap="round" stroke-linejoin="round"/>
<path d="M9.99701 13C9.58301 13 9.24702 13.336 9.25002 13.75C9.25002 14.164 9.58602 14.5 10 14.5C10.414 14.5 10.75 14.164 10.75 13.75C10.75 13.336 10.414 13 9.99701 13Z" fill="#142438"/>
</svg>
