<svg width="20" height="20" viewBox="0 0 20 20" fill="none" xmlns="http://www.w3.org/2000/svg">
<path d="M2.5 5.75C2.5 5.33579 2.83579 5 3.25 5H5.5V6.5H3.25C2.83579 6.5 2.5 6.16421 2.5 5.75Z" fill="#142438"/>
<path d="M14.5 5H16.75C17.1642 5 17.5 5.33579 17.5 5.75C17.5 6.16421 17.1642 6.5 16.75 6.5H14.5V5Z" fill="#142438"/>
<path d="M4.37375 6.02866C4.35662 5.88022 4.47268 5.75 4.6221 5.75H15.3781C15.5275 5.75 15.6436 5.88022 15.6264 6.02866L14.3572 17.0287C14.3426 17.1548 14.2358 17.25 14.1088 17.25H5.89133C5.76435 17.25 5.65753 17.1548 5.64298 17.0287L4.37375 6.02866Z" stroke="#142438" stroke-width="1.5"/>
<path d="M12 5.75H12.75V5V4.5C12.75 3.5335 11.9665 2.75 11 2.75H9C8.0335 2.75 7.25 3.5335 7.25 4.5V5V5.75H8H12Z" stroke="#142438" stroke-width="1.5"/>
<path d="M9.25 8.74998C9.25 8.33576 8.91421 7.99998 8.5 7.99998C8.08579 7.99998 7.75 8.33576 7.75 8.74998V14.25C7.75 14.6642 8.08579 15 8.5 15C8.91421 15 9.25 14.6642 9.25 14.25V8.74998Z" fill="#142438"/>
<path d="M12.25 8.74998C12.25 8.33576 11.9142 7.99998 11.5 7.99998C11.0858 7.99998 10.75 8.33576 10.75 8.74998V14.25C10.75 14.6642 11.0858 15 11.5 15C11.9142 15 12.25 14.6642 12.25 14.25V8.74998Z" fill="#142438"/>
</svg>
