<svg width="21" height="20" viewBox="0 0 21 20" fill="none" xmlns="http://www.w3.org/2000/svg">
  <path d="M13.361 12.8554L10.5039 9.99829L7.64673 12.8554" stroke="#002A3A" stroke-width="1.5" stroke-linecap="round" stroke-linejoin="round"/>
  <path d="M10.5039 9.99829V16.4269" stroke="#002A3A" stroke-width="1.5" stroke-linecap="round" stroke-linejoin="round"/>
  <path d="M16.4966 14.5625C17.1933 14.1827 17.7437 13.5817 18.0608 12.8544C18.378 12.1271 18.4439 11.3148 18.2482 10.5459C18.0525 9.77691 17.6063 9.09502 16.98 8.60783C16.3537 8.12064 15.583 7.85589 14.7895 7.85537H13.8895C13.6733 7.01911 13.2703 6.24275 12.7109 5.58465C12.1514 4.92655 11.4501 4.40383 10.6596 4.0558C9.86903 3.70777 9.00988 3.54348 8.14671 3.57529C7.28355 3.60709 6.43882 3.83416 5.67604 4.23942C4.91326 4.64468 4.25228 5.21759 3.74279 5.91507C3.2333 6.61256 2.88855 7.41647 2.73447 8.26637C2.58039 9.11627 2.62099 9.99003 2.85321 10.822C3.08543 11.6539 3.50323 12.4224 4.0752 13.0697" stroke="#002A3A" stroke-width="1.5" stroke-linecap="round" stroke-linejoin="round"/>
  <path d="M13.361 12.8554L10.5039 9.99829L7.64673 12.8554" fill="#002A3A"/>
  <path d="M13.361 12.8554L10.5039 9.99829L7.64673 12.8554" stroke="#171D23" stroke-width="1.5" stroke-linecap="round" stroke-linejoin="round"/>
</svg>
