<svg width="20" height="20" viewBox="0 0 20 20" fill="none" xmlns="http://www.w3.org/2000/svg">
  <path d="M14.2147 16.4285V14.9999C14.2147 14.2422 13.9137 13.5154 13.3779 12.9796C12.842 12.4438 12.1153 12.1428 11.3576 12.1428H5.64328C4.88551 12.1428 4.15879 12.4438 3.62297 12.9796C3.08715 13.5154 2.78613 14.2422 2.78613 14.9999V16.4285M16 10.5V5.5M13.5 8H18.5" stroke="#171D23" stroke-width="1.5" stroke-linecap="round" stroke-linejoin="round"/>
  <path d="M8.4997 9.28558C10.0777 9.28558 11.3569 8.00639 11.3569 6.42843C11.3569 4.85048 10.0777 3.57129 8.4997 3.57129C6.92176 3.57129 5.64258 4.85048 5.64258 6.42843C5.64258 8.00639 6.92176 9.28558 8.4997 9.28558Z" stroke="#171D23" stroke-width="1.5" stroke-linecap="round" stroke-linejoin="round"/>
</svg>
