<svg width="20" height="20" viewBox="0 0 20 20" fill="none" xmlns="http://www.w3.org/2000/svg">
  <path d="M2.78613 16.4285V14.9999C2.78613 14.2422 3.08715 13.5154 3.62297 12.9796C4.15879 12.4438 4.88551 12.1428 5.64328 12.1428H8.50044" stroke="#171D23" stroke-width="1.5" stroke-linecap="round" stroke-linejoin="round"/>
  <path d="M8.4997 9.28558C10.0777 9.28558 11.3569 8.00639 11.3569 6.42843C11.3569 4.85048 10.0777 3.57129 8.4997 3.57129C6.92176 3.57129 5.64258 4.85048 5.64258 6.42843C5.64258 8.00639 6.92176 9.28558 8.4997 9.28558Z" stroke="#171D23" stroke-width="1.5" stroke-linecap="round" stroke-linejoin="round"/>
  <path d="M18 13.5443C18 15.6051 16.5068 17.5321 14.5 18C12.4932 17.5321 11 15.6051 11 13.5443V11.9255C11 11.557 11.2148 11.2248 11.5438 11.0854L13.7313 10.1569C14.2239 9.9477 14.776 9.9477 15.2687 10.1569L17.4562 11.0854C17.7852 11.2252 18 11.557 18 11.9255V13.5443Z" stroke="#171D23" stroke-width="1.5" stroke-linecap="round" stroke-linejoin="round"/>
</svg>
