<svg width="20" height="20" viewBox="0 0 20 20" fill="none" xmlns="http://www.w3.org/2000/svg">
<path d="M15.8333 17.5H4.16667C3.24583 17.5 2.5 16.7542 2.5 15.8333V4.16667C2.5 3.24583 3.24583 2.5 4.16667 2.5H15.8333C16.7542 2.5 17.5 3.24583 17.5 4.16667V15.8333C17.5 16.7542 16.7542 17.5 15.8333 17.5Z" stroke="#142438" stroke-width="1.5" stroke-linecap="round" stroke-linejoin="round"/>
<path d="M12.0626 6.20584C13.2016 7.34487 13.2016 9.19159 12.0626 10.3306C10.9235 11.4697 9.0768 11.4697 7.93777 10.3306C6.79874 9.19159 6.79874 7.34487 7.93777 6.20584C9.0768 5.0668 10.9235 5.0668 12.0626 6.20584Z" stroke="#142438" stroke-width="1.5" stroke-linecap="round" stroke-linejoin="round"/>
<path d="M14.5108 15.0245C14.3633 14.6529 14.1341 14.3195 13.8408 14.0479C13.3449 13.5879 12.6966 13.332 12.0199 13.332C10.8916 13.332 9.10828 13.332 7.97995 13.332C7.30328 13.332 6.65495 13.5879 6.15828 14.0479C5.86495 14.3195 5.63661 14.6529 5.48828 15.0245" stroke="#142438" stroke-width="1.5" stroke-linecap="round" stroke-linejoin="round"/>
</svg>
