<svg xmlns="http://www.w3.org/2000/svg" width="20" height="20" fill="none">
  <path fill="#99A1AB" fill-rule="evenodd" d="M15.6268 3.38496c-.3754-.34036-1.996-1.35635-5.3773-1.37106 0 0-4.00394-.2625-5.94761 1.49414C3.22011 4.5738 2.85567 6.15865 2.81572 8.09269l-.00439.19848c-.04518 1.97813-.12477 5.46293 3.30283 6.41303 0 0-.01395 2.743-.01556 2.984 0 .1686.02682.2839.12336.3078.06945.0168.1735-.019.262-.1071.5669-.568 2.38185-2.7528 2.38185-2.7528 2.43519.1587 4.37269-.3211 4.58109-.3891.049-.0157.1197-.0321.2075-.0526h.0001c.7923-.1843 2.9858-.6946 3.3906-3.9572.4648-3.73622-.1708-6.28649-1.4183-7.35224ZM10.392 6.52817c.0065-.1244.1129-.21999.2375-.2135.4665.02428.8546.16517 1.131.45034.2754.28407.4104.68093.4341 1.15755.0062.12442-.0899.23029-.2146.23646-.1247.00617-.2308-.08969-.237-.21411-.0203-.40799-.1325-.68574-.3075-.86627-.1739-.17943-.4393-.29314-.8295-.31345-.1247-.00649-.2205-.11261-.214-.23702Zm-.1007-1.42365c-.1246-.0091-.2329.08425-.242.2085-.0091.12424.0844.23233.209.24143.8607.06285 1.5071.35031 1.9695.85393.4639.50572.6915 1.13612.6748 1.90853-.0027.12454.0963.2277.2211.23039.1248.0027.2282-.09608.2309-.22063.019-.87587-.2427-1.62259-.7932-2.22286l-.0001-.00008c-.5566-.60623-1.3207-.92989-2.27-.99921Zm-.6411-.94683c.00087-.12458.10278-.22486.22763-.22399 1.31197.00911 2.42087.4449 3.31117 1.31094.8978.87329 1.3418 2.06218 1.3531 3.53876.0009.12457-.0995.22633-.2244.22728-.1248.00094-.2268-.09928-.2277-.22385-.0106-1.38363-.4231-2.44737-1.2166-3.21915-.8009-.77902-1.7952-1.1745-2.99872-1.18286-.12485-.00087-.22535-.10256-.22448-.22713Zm1.5012 6.61371c-.1711.2103-.4888.1836-.4888.1836-2.32263-.5916-2.94424-2.9391-2.94424-2.9391s-.02789-.31707.18396-.48779l.41968-.33286c.2081-.16001.34084-.54827.12899-.92742-.16249-.28461-.33917-.56091-.52936-.82788-.18477-.25179-.61517-.76741-.61678-.76902-.20756-.24429-.51274-.30102-.83453-.13378-.00098 0-.00232.00043-.0036.00085-.00119.00038-.00234.00075-.00311.00075-.32006.18401-.60865.41777-.85491.69249-.00084.00167-.00168.00248-.00252.00328-.00077.00073-.00154.00147-.00231.00287-.1988.23939-.31259.47406-.34137.704-.00598.0339-.00805.06837-.00617.10275-.00107.10153.01442.20257.04586.29915l.01099.00749c.10029.35534.3513.94722.89675 1.93404.31198.57078.6718 1.1142 1.07561 1.62445.20231.25583.41917.49973.6495.73073.00278.0028.00553.0056.00827.0083.00545.0055.01087.011.0164.0163l.02467.0247.02467.0246.02467.0246c.2315.2298.47602.4462.73236.6481.51143.4029 1.05615.762 1.62832 1.0732.9887.5443 1.5824.7947 1.938.8948l.0075.011c.0968.0314.1981.047.2998.046.0345.0016.069-.0005.103-.0064.2308-.0273.4658-.1407.705-.3401.0014-.0008.0022-.0016.0029-.0023.0008-.0009.0016-.0017.0033-.0025.2753-.2458.5097-.5338.6943-.8531 0-.0008.0003-.0019.0006-.0031.0003-.0013.0007-.0026.0007-.0036.1676-.3211.1108-.6256-.1354-.8329-.0003 0-.0204-.0165-.0544-.0445-.1395-.1147-.5134-.4221-.7163-.571-.2673-.1897-.544-.366-.8289-.5282-.3803-.2113-.7686-.0789-.9295.1287l-.3336.4188Z" clip-rule="evenodd"/>
</svg>
