<svg width="20" height="20" viewBox="0 0 20 20" fill="none" xmlns="http://www.w3.org/2000/svg">
<path fill-rule="evenodd" clip-rule="evenodd" d="M2.25732 14.7646L8.69255 3.32424C9.266 2.30476 10.7338 2.30476 11.3073 3.32424L17.7425 14.7646C18.305 15.7646 17.5824 17 16.4351 17H3.56468C2.41744 17 1.69487 15.7646 2.25732 14.7646ZM9.99596 13C9.44397 13 8.99598 13.448 8.99998 14C8.99998 14.552 9.44797 15 9.99996 15C10.552 15 11 14.552 11 14C11 13.448 10.552 13 9.99596 13ZM9.55249 7C9.25668 7 9.02554 7.25541 9.05498 7.54975L9.45498 11.5498C9.48054 11.8054 9.69562 12 9.95249 12H10.0475C10.3044 12 10.5195 11.8054 10.545 11.5498L10.945 7.54975C10.9745 7.25541 10.7433 7 10.4475 7H9.55249Z" fill="#142438"/>
</svg>
