<svg width="20" height="20" viewBox="0 0 20 20" fill="none" xmlns="http://www.w3.org/2000/svg">
  <path d="M15.8333 4.16663H16.6667C17.5875 4.16663 18.3333 4.91246 18.3333 5.83329V15.8333C18.3333 16.7541 17.5875 17.5 16.6667 17.5H3.33333C2.4125 17.5 1.66667 16.7541 1.66667 15.8333V5.83329C1.66667 4.91246 2.4125 4.16663 3.33333 4.16663H4.16667" stroke="#171D23" stroke-width="1.5" stroke-linecap="round" stroke-linejoin="round"/>
  <path d="M10 5C10 3.61917 8.88083 2.5 7.5 2.5H5C4.54 2.5 4.16667 2.87333 4.16667 3.33333V14.1667C4.16667 14.6267 4.54 15 5 15H7.5C8.88083 15 10 16.1192 10 17.5C10 16.1192 11.1192 15 12.5 15H15C15.46 15 15.8333 14.6267 15.8333 14.1667V3.33333C15.8333 2.87333 15.46 2.5 15 2.5H12.5C11.1192 2.5 10 3.61917 10 5Z" stroke="#171D23" stroke-width="1.5" stroke-linecap="round" stroke-linejoin="round"/>
  <path d="M10 5V17.5" stroke="#171D23" stroke-width="1.5" stroke-linecap="round" stroke-linejoin="round"/>
</svg>
