<svg width="20" height="20" viewBox="0 0 20 20" fill="none" xmlns="http://www.w3.org/2000/svg">
  <path d="M4.16667 11.6667C3.24583 11.6667 2.5 10.9208 2.5 10V4.16667C2.5 3.24583 3.24583 2.5 4.16667 2.5H10C10.9208 2.5 11.6667 3.24583 11.6667 4.16667" stroke="#171D23" stroke-width="1.5" stroke-linecap="round" stroke-linejoin="round"/>
  <path d="M10.8442 6.80421C14.7958 5.92838 18.2392 9.37171 17.3625 13.3225C16.9208 15.3142 15.3142 16.9209 13.3225 17.3625C9.37083 18.2384 5.9275 14.795 6.80417 10.8442C7.24583 8.85255 8.8525 7.24588 10.8442 6.80421V6.80421Z" stroke="#171D23" stroke-width="1.5" stroke-linecap="round" stroke-linejoin="round"/>
  <path d="M11.6667 9.16663V9.99996C11.6667 10.9208 10.9208 11.6666 10 11.6666H9.16667" stroke="#171D23" stroke-width="1.5" stroke-linecap="round" stroke-linejoin="round"/>
</svg>
