<svg width="20" height="20" viewBox="0 0 20 20" fill="none" xmlns="http://www.w3.org/2000/svg">
  <path d="M16.4286 9.64286C16.431 10.5856 16.2108 11.5156 15.7857 12.3571C15.2817 13.3655 14.507 14.2137 13.5482 14.8066C12.5894 15.3996 11.4845 15.7139 10.3571 15.7143C9.41438 15.7167 8.48437 15.4965 7.64286 15.0714L3.57143 16.4286L4.92857 12.3571C4.50352 11.5156 4.28326 10.5856 4.28572 9.64286C4.28615 8.51554 4.60044 7.41061 5.19337 6.45182C5.78631 5.49304 6.63447 4.71827 7.64286 4.21429C8.48437 3.78924 9.41438 3.56897 10.3571 3.57143H10.7143C12.2031 3.65357 13.6093 4.28198 14.6637 5.33633C15.718 6.39069 16.3464 7.7969 16.4286 9.28572V9.64286Z" stroke="#171D23" stroke-width="1.5" stroke-linecap="round" stroke-linejoin="round"/>
</svg>
