<svg width="20" height="20" viewBox="0 0 20 20" fill="none" xmlns="http://www.w3.org/2000/svg">
  <path d="M1.5625 9.55916C11.875 3.4375 10.8333 13.3333 18.4375 10" stroke="#171D23" stroke-width="1.5" stroke-linecap="round" stroke-linejoin="round"/>
  <path d="M5.115 2.5C10.9375 5.3125 9.0625 14.6875 6.25 17.5" stroke="#171D23" stroke-width="1.5" stroke-linecap="round" stroke-linejoin="round"/>
  <path d="M10.9375 2.5C16.76 5.3125 15 15 12.8125 17.5" stroke="#171D23" stroke-width="1.5" stroke-linecap="round" stroke-linejoin="round"/>
  <path d="M1.5625 15.6584C10.8333 9.16671 12.8125 17.5 12.8125 17.5" stroke="#171D23" stroke-width="1.5" stroke-linecap="round" stroke-linejoin="round"/>
  <path d="M16.5625 17.5H3.4375C2.40167 17.5 1.5625 16.6608 1.5625 15.625V4.375C1.5625 3.33917 2.40167 2.5 3.4375 2.5H16.5625C17.5983 2.5 18.4375 3.33917 18.4375 4.375V15.625C18.4375 16.6608 17.5983 17.5 16.5625 17.5Z" stroke="#171D23" stroke-width="1.5" stroke-linecap="round" stroke-linejoin="round"/>
</svg>
