<svg width="20" height="20" viewBox="0 0 20 20" fill="none" xmlns="http://www.w3.org/2000/svg">
  <path d="M15.3575 14.1667H4.6425C3.45917 14.1667 2.5 13.2075 2.5 12.0242V4.6425C2.5 3.45917 3.45917 2.5 4.6425 2.5H15.3567C16.5408 2.5 17.5 3.45917 17.5 4.6425V12.0233C17.5 13.2075 16.5408 14.1667 15.3575 14.1667V14.1667Z" stroke="#171D23" stroke-width="1.5" stroke-linecap="round" stroke-linejoin="round"/>
  <path d="M11.6667 14.1667L12.0833 17.5" stroke="#171D23" stroke-width="1.5" stroke-linecap="round" stroke-linejoin="round"/>
  <path d="M8.33332 14.1667L7.91666 17.5" stroke="#171D23" stroke-width="1.5" stroke-linecap="round" stroke-linejoin="round"/>
  <path d="M6.78333 17.5H13.2167" stroke="#171D23" stroke-width="1.5" stroke-linecap="round" stroke-linejoin="round"/>
  <path d="M10 5.83333V5" stroke="#171D23" stroke-width="1.5" stroke-linecap="round" stroke-linejoin="round"/>
  <path d="M10 10.8333V11.6666" stroke="#171D23" stroke-width="1.5" stroke-linecap="round" stroke-linejoin="round"/>
  <path d="M8.55334 10.2383C8.76918 10.5917 9.13751 10.8367 9.58334 10.8367H10H10.4967C11.1433 10.8367 11.6667 10.3125 11.6667 9.66668C11.6667 9.13001 11.3017 8.66251 10.7808 8.53168L9.21834 8.14001C8.69834 8.00834 8.33334 7.54001 8.33334 7.00334C8.33334 6.35751 8.85751 5.83334 9.50334 5.83334H10H10.4167C10.8608 5.83334 11.2283 6.07668 11.445 6.42834" stroke="#171D23" stroke-width="1.5" stroke-linecap="round" stroke-linejoin="round"/>
</svg>
