<svg width="20" height="20" viewBox="0 0 20 20" fill="none" xmlns="http://www.w3.org/2000/svg">
  <path d="M16.6667 17.5H3.33333C2.87333 17.5 2.5 17.1267 2.5 16.6667V13.3333C2.5 12.8733 2.87333 12.5 3.33333 12.5H16.6667C17.1267 12.5 17.5 12.8733 17.5 13.3333V16.6667C17.5 17.1267 17.1267 17.5 16.6667 17.5Z" stroke="#171D23" stroke-width="1.5" stroke-linecap="round" stroke-linejoin="round"/>
  <path d="M16.6667 9.16667H11.6667C11.2067 9.16667 10.8333 8.79333 10.8333 8.33333V3.33333C10.8333 2.87333 11.2067 2.5 11.6667 2.5H16.6667C17.1267 2.5 17.5 2.87333 17.5 3.33333V8.33333C17.5 8.79333 17.1267 9.16667 16.6667 9.16667Z" stroke="#171D23" stroke-width="1.5" stroke-linecap="round" stroke-linejoin="round"/>
  <path d="M7.5 2.5H2.5" stroke="#171D23" stroke-width="1.5" stroke-linecap="round" stroke-linejoin="round"/>
  <path d="M7.5 5.83337H2.5" stroke="#171D23" stroke-width="1.5" stroke-linecap="round" stroke-linejoin="round"/>
  <path d="M7.5 9.16663H2.5" stroke="#171D23" stroke-width="1.5" stroke-linecap="round" stroke-linejoin="round"/>
</svg>
