<svg width="20" height="20" viewBox="0 0 20 20" fill="none" xmlns="http://www.w3.org/2000/svg">
  <path d="M16.6667 17.5H3.33333C2.4125 17.5 1.66667 16.7542 1.66667 15.8333V4.16667C1.66667 3.24583 2.4125 2.5 3.33333 2.5H16.6667C17.5875 2.5 18.3333 3.24583 18.3333 4.16667V15.8333C18.3333 16.7542 17.5875 17.5 16.6667 17.5Z" stroke="#171D23" stroke-width="1.5" stroke-linecap="round" stroke-linejoin="round"/>
  <path d="M1.66667 6.66663H18.3333" stroke="#171D23" stroke-width="1.5" stroke-linecap="round" stroke-linejoin="round"/>
  <path d="M3.9825 4.57495C3.98 4.57495 3.97834 4.57662 3.97834 4.57912C3.97834 4.58162 3.98 4.58328 3.9825 4.58328C3.985 4.58328 3.98667 4.58162 3.98667 4.57912C3.98667 4.57662 3.985 4.57495 3.9825 4.57495Z" stroke="#171D23" stroke-width="1.5" stroke-linecap="round" stroke-linejoin="round"/>
  <path d="M6.10167 4.57495C6.09917 4.57495 6.0975 4.57662 6.0975 4.57912C6.0975 4.58162 6.1 4.58328 6.10167 4.58328C6.10417 4.58328 6.10583 4.58162 6.10583 4.57912C6.10583 4.57662 6.10417 4.57495 6.10167 4.57495Z" stroke="#171D23" stroke-width="1.5" stroke-linecap="round" stroke-linejoin="round"/>
  <path d="M8.2175 4.57495C8.215 4.57495 8.21333 4.57662 8.21333 4.57912C8.21333 4.58162 8.215 4.58328 8.2175 4.58328C8.22 4.58328 8.22167 4.58162 8.22167 4.57912C8.22167 4.57662 8.22 4.57495 8.2175 4.57495Z" stroke="#171D23" stroke-width="1.5" stroke-linecap="round" stroke-linejoin="round"/>
  <path d="M10.65 9.16663L9.35 15" stroke="#171D23" stroke-width="1.5" stroke-linecap="round" stroke-linejoin="round"/>
  <path d="M12.7083 10.625L14.1667 12.0833L12.7083 13.5417" stroke="#171D23" stroke-width="1.5" stroke-linecap="round" stroke-linejoin="round"/>
  <path d="M7.29167 13.5417L5.83334 12.0833L7.29167 10.625" stroke="#171D23" stroke-width="1.5" stroke-linecap="round" stroke-linejoin="round"/>
</svg>
