<svg width="20" height="20" viewBox="0 0 20 20" fill="none" xmlns="http://www.w3.org/2000/svg">
<path fill-rule="evenodd" clip-rule="evenodd" d="M12.8322 1.06062L10.3825 1.85349C10.1341 1.93448 9.86596 1.93448 9.61847 1.85349L7.16877 1.06062C6.58919 0.873428 5.95832 1.13442 5.68203 1.67619L4.51028 3.9693C4.39148 4.20239 4.20249 4.39138 3.9694 4.51018L1.67719 5.68103C1.13452 5.95822 0.873528 6.58909 1.06072 7.16867L1.85359 9.61747C1.93368 9.86586 1.93368 10.1331 1.85359 10.3815L1.06072 12.8312C0.872628 13.4108 1.13362 14.0408 1.67629 14.318L3.9694 15.4897C4.20249 15.6085 4.39148 15.7984 4.51028 16.0306L5.68113 18.3237C5.95832 18.8655 6.58829 19.1274 7.16787 18.9393L9.61757 18.1464C9.86596 18.0663 10.1332 18.0663 10.3816 18.1464L12.8313 18.9393C13.4109 19.1274 14.0409 18.8664 14.3181 18.3237L15.4898 16.0306C15.6086 15.7975 15.7985 15.6085 16.0307 15.4897L18.3238 14.3189C18.8656 14.0417 19.1275 13.4117 18.9394 12.8321L18.1465 10.3824C18.0664 10.134 18.0664 9.86676 18.1465 9.61837L18.9295 7.19926C19.123 6.60169 18.8539 5.95192 18.295 5.66663L16.0307 4.51018C15.7976 4.39138 15.6086 4.20149 15.4898 3.9693L14.319 1.67619C14.0418 1.13442 13.4118 0.872528 12.8322 1.06062ZM13.8328 7.23973C13.5826 7.02248 13.2037 7.04919 12.9864 7.29939L9.22524 11.631L6.64784 9.23972L6.5622 9.17346C6.32247 9.02034 6.00027 9.05556 5.79994 9.27148C5.57457 9.51439 5.58879 9.89401 5.8317 10.1194L8.86364 12.9324L8.95132 13C9.19686 13.1554 9.52711 13.1135 9.72474 12.8859L13.8925 8.08613L13.9559 7.99836C14.1011 7.75372 14.0552 7.43285 13.8328 7.23973Z" fill="#00AFFF"/>
</svg>
